STARTFONT 2.1
FONT -FontForge-Helvetica-Bold-R-Normal--38-360-75-75-P-211-ISO10646-1
SIZE 36 75 75
FONTBOUNDINGBOX 44 45 -6 -9
COMMENT "Generated by fontforge, http://fontforge.sourceforge.net"
COMMENT "Copyright (c) 1985, 1987, 1989, 1990 Adobe Systems Incorporated.  All Rights Reserved.Helvetica is a trademark of Linotype AG and/or its subsidiaries."
STARTPROPERTIES 40
FOUNDRY "FontForge"
FAMILY_NAME "Helvetica"
WEIGHT_NAME "Bold"
SLANT "R"
SETWIDTH_NAME "Normal"
ADD_STYLE_NAME ""
PIXEL_SIZE 38
POINT_SIZE 360
RESOLUTION_X 75
RESOLUTION_Y 75
SPACING "P"
AVERAGE_WIDTH 211
CHARSET_REGISTRY "ISO10646"
CHARSET_ENCODING "1"
FONTNAME_REGISTRY ""
CHARSET_COLLECTIONS "ISO10646-1"
FONT_NAME "Helvetica-Bold"
FACE_NAME "Helvetica Bold"
COPYRIGHT "Copyright (c) 1985, 1987, 1989, 1990 Adobe Systems Incorporated.  All Rights Reserved.Helvetica is a trademark of Linotype AG and/or its subsidiaries."
FONT_VERSION "001.007"
FONT_ASCENT 30
FONT_DESCENT 8
UNDERLINE_POSITION -4
UNDERLINE_THICKNESS 2
X_HEIGHT 19
CAP_HEIGHT 26
RAW_ASCENT 800
RAW_DESCENT 200
NORM_SPACE 11
RELATIVE_WEIGHT 70
RELATIVE_SETWIDTH 50
SUPERSCRIPT_X 0
SUPERSCRIPT_Y 19
SUPERSCRIPT_SIZE 24
SUBSCRIPT_X 0
SUBSCRIPT_Y 5
SUBSCRIPT_SIZE 24
FIGURE_WIDTH 21
AVG_LOWERCASE_WIDTH 207
AVG_UPPERCASE_WIDTH 257
ENDPROPERTIES
CHARS 229
STARTCHAR space
ENCODING 32
SWIDTH 278 0
DWIDTH 11 0
BBX 1 1 0 0
BITMAP
00
ENDCHAR
STARTCHAR exclam
ENCODING 33
SWIDTH 333 0
DWIDTH 13 0
BBX 6 27 3 0
BITMAP
FC
FC
FC
FC
FC
FC
FC
FC
7C
7C
7C
7C
7C
78
78
78
38
38
38
38
00
00
7C
7C
7C
7C
7C
ENDCHAR
STARTCHAR quotedbl
ENCODING 34
SWIDTH 474 0
DWIDTH 18 0
BBX 10 10 4 17
BITMAP
E1C0
E1C0
E1C0
E1C0
E1C0
E1C0
E1C0
E1C0
E1C0
E1C0
ENDCHAR
STARTCHAR numbersign
ENCODING 35
SWIDTH 556 0
DWIDTH 21 0
BBX 19 27 1 -1
BITMAP
038780
038780
038700
038700
078700
078F00
078F00
078F00
7FFFE0
7FFFE0
7FFFE0
0F0E00
0F0E00
0F1E00
0F1E00
0E1E00
FFFFC0
FFFFC0
FFFFC0
1E1C00
1E3C00
1E3C00
1C3C00
1C3C00
1C3800
3C3800
3C3800
ENDCHAR
STARTCHAR dollar
ENCODING 36
SWIDTH 556 0
DWIDTH 21 0
BBX 19 33 1 -4
BITMAP
004000
004000
03F800
0FFE00
1FFF80
3FFF80
7E4FC0
7C47C0
7C47C0
7C43C0
7C4000
7E4000
7FC000
3FF000
1FFE00
0FFF00
03FF80
007FC0
004FE0
0047E0
F843E0
F843E0
FC43E0
FC47C0
7E4FC0
7FFFC0
3FFF80
1FFE00
03F800
004000
004000
004000
004000
ENDCHAR
STARTCHAR percent
ENCODING 37
SWIDTH 889 0
DWIDTH 34 0
BBX 32 27 1 0
BITMAP
07C00300
1FE00700
3FF00600
7FF80E00
78781C00
F03C1C00
F03C3800
F03C3800
F03C7000
78786000
7FF8E000
3FF0C000
1FE1C000
078381E0
000387F8
00070FFC
00071FFE
000E3E3E
000C3C1F
001C3C0F
00183C0F
00383C1F
00703E1E
00701FFE
00E01FFC
00E00FF8
01C003E0
ENDCHAR
STARTCHAR ampersand
ENCODING 38
SWIDTH 722 0
DWIDTH 27 0
BBX 24 27 2 0
BITMAP
00F800
03FE00
07FF00
0FFF80
0F8F80
1F0780
1F0780
0F8F80
0F8F80
0FDF00
07FF00
07FE00
07F800
1FF83E
3FFC3E
7F7E3C
7E3F7C
FC1FFC
F80FF8
F80FF0
FC07F0
FE07F0
7FBFF8
7FFFFC
3FFF7E
1FFC7F
07F03F
ENDCHAR
STARTCHAR quotesingle
ENCODING 39
SWIDTH 238 0
DWIDTH 9 0
BBX 3 10 3 17
BITMAP
E0
E0
E0
E0
E0
E0
E0
E0
E0
E0
ENDCHAR
STARTCHAR parenleft
ENCODING 40
SWIDTH 333 0
DWIDTH 13 0
BBX 11 35 1 -8
BITMAP
01E0
03C0
07C0
0780
0F80
0F00
1F00
1E00
3E00
3E00
7E00
7C00
7C00
7C00
7C00
FC00
FC00
FC00
FC00
FC00
7C00
7C00
7C00
7C00
7E00
3E00
3E00
3E00
1F00
1F00
0F80
0780
07C0
03C0
01E0
ENDCHAR
STARTCHAR parenright
ENCODING 41
SWIDTH 333 0
DWIDTH 13 0
BBX 10 35 1 -8
BITMAP
F000
7800
7800
3C00
3E00
1E00
1F00
1F00
0F80
0F80
0F80
0FC0
0FC0
07C0
07C0
07C0
07C0
07C0
07C0
07C0
07C0
07C0
07C0
0FC0
0F80
0F80
0F80
1F00
1F00
1E00
3E00
3C00
7800
7800
F000
ENDCHAR
STARTCHAR asterisk
ENCODING 42
SWIDTH 389 0
DWIDTH 15 0
BBX 13 12 1 15
BITMAP
0700
0700
0700
4710
FFF0
FFF8
3FE0
0F80
1FC0
3DC0
39E0
38E0
ENDCHAR
STARTCHAR plus
ENCODING 43
SWIDTH 584 0
DWIDTH 22 0
BBX 19 19 2 0
BITMAP
01E000
01E000
01E000
01E000
01E000
01E000
01E000
FFFFE0
FFFFE0
FFFFE0
FFFFE0
01E000
01E000
01E000
01E000
01E000
01E000
01E000
01E000
ENDCHAR
STARTCHAR comma
ENCODING 44
SWIDTH 278 0
DWIDTH 11 0
BBX 6 12 2 -6
BITMAP
FC
FC
FC
FC
FC
FC
0C
1C
1C
38
F0
E0
ENDCHAR
STARTCHAR hyphen
ENCODING 45
SWIDTH 333 0
DWIDTH 13 0
BBX 11 5 1 8
BITMAP
FFE0
FFE0
FFE0
FFE0
FFE0
ENDCHAR
STARTCHAR period
ENCODING 46
SWIDTH 278 0
DWIDTH 11 0
BBX 6 6 2 0
BITMAP
FC
FC
FC
FC
FC
FC
ENDCHAR
STARTCHAR slash
ENCODING 47
SWIDTH 278 0
DWIDTH 11 0
BBX 13 27 -1 0
BITMAP
00F8
00F0
00F0
01F0
01E0
01E0
03E0
03C0
03C0
07C0
0780
0780
0F80
0F00
0F00
1F00
1F00
1E00
3E00
3E00
3C00
7C00
7C00
7800
7800
F800
F000
ENDCHAR
STARTCHAR zero
ENCODING 48
SWIDTH 556 0
DWIDTH 21 0
BBX 19 27 1 0
BITMAP
03F800
0FFE00
1FFF00
3FFF80
3F9F80
7E0FC0
7C07C0
7C07C0
7C07E0
FC07E0
FC07E0
FC07E0
FC07E0
FC07E0
FC07E0
FC07E0
FC07E0
FC07E0
7C07E0
7C07C0
7C07C0
7E0FC0
3F1F80
3FFF80
1FFF00
0FFE00
03F800
ENDCHAR
STARTCHAR one
ENCODING 49
SWIDTH 556 0
DWIDTH 21 0
BBX 11 27 3 0
BITMAP
01E0
01E0
03E0
07E0
0FE0
FFE0
FFE0
FFE0
FFE0
03E0
03E0
03E0
03E0
03E0
03E0
03E0
03E0
03E0
03E0
03E0
03E0
03E0
03E0
03E0
03E0
03E0
03E0
ENDCHAR
STARTCHAR two
ENCODING 50
SWIDTH 556 0
DWIDTH 21 0
BBX 18 27 1 0
BITMAP
03F800
0FFE00
1FFF00
3FFF80
7FFFC0
7E0FC0
7C07C0
FC07C0
FC07C0
F807C0
0007C0
000FC0
001F80
003F80
007F00
01FE00
03FC00
07F000
0FE000
1FC000
3F0000
7E0000
7FFFC0
7FFFC0
FFFFC0
FFFFC0
FFFFC0
ENDCHAR
STARTCHAR three
ENCODING 51
SWIDTH 556 0
DWIDTH 21 0
BBX 19 27 1 0
BITMAP
03F800
0FFE00
1FFF00
3FFF80
7F3F80
7C0FC0
7C0FC0
780FC0
000FC0
000F80
001F80
01FF00
01FE00
01FF80
01FF80
001FC0
0007C0
0007E0
F807E0
F807E0
FC07C0
FC0FC0
7F1FC0
7FFF80
3FFF00
1FFE00
03F800
ENDCHAR
STARTCHAR four
ENCODING 52
SWIDTH 556 0
DWIDTH 21 0
BBX 19 27 1 0
BITMAP
003F00
007F00
00FF00
00FF00
01FF00
01FF00
03DF00
079F00
079F00
0F1F00
0F1F00
1E1F00
3C1F00
3C1F00
781F00
781F00
F01F00
FFFFE0
FFFFE0
FFFFE0
FFFFE0
001F00
001F00
001F00
001F00
001F00
001F00
ENDCHAR
STARTCHAR five
ENCODING 53
SWIDTH 556 0
DWIDTH 21 0
BBX 19 27 1 0
BITMAP
1FFFC0
1FFFC0
3FFFC0
3FFFC0
3E0000
3C0000
3C0000
3C0000
3C0000
3DFC00
7FFF00
7FFF80
7FFF80
7E1FC0
7C0FC0
0007C0
0007E0
0007E0
0007E0
F807C0
FC07C0
FC0FC0
7F3F80
7FFF80
3FFF00
1FFE00
03F000
ENDCHAR
STARTCHAR six
ENCODING 54
SWIDTH 556 0
DWIDTH 21 0
BBX 19 27 1 0
BITMAP
01F800
07FE00
0FFF00
1FFF80
3F9FC0
3E0FC0
7E07C0
7C0000
7C0000
7C0000
F9FC00
FBFF00
FFFF80
FFFFC0
FE0FC0
FC07E0
FC07E0
FC07E0
7C07E0
7C07E0
7C07C0
7E0FC0
3F9FC0
3FFF80
1FFF00
0FFE00
03F800
ENDCHAR
STARTCHAR seven
ENCODING 55
SWIDTH 556 0
DWIDTH 21 0
BBX 19 27 1 0
BITMAP
FFFFE0
FFFFE0
FFFFE0
FFFFE0
FFFFE0
0007C0
000F80
001F00
003F00
003E00
007C00
007C00
00F800
00F800
01F000
01F000
03E000
03E000
07E000
07C000
07C000
07C000
0FC000
0FC000
0F8000
0F8000
0F8000
ENDCHAR
STARTCHAR eight
ENCODING 56
SWIDTH 556 0
DWIDTH 21 0
BBX 19 27 1 0
BITMAP
03F800
0FFE00
1FFF00
3FFF80
3F1FC0
7E0FC0
7C07C0
7C07C0
7C07C0
7E0FC0
3F1F80
1FFF00
0FFE00
1FFF80
3FFFC0
7E0FC0
7C07E0
FC07E0
FC07E0
FC07E0
FC07E0
7E07C0
7F1FC0
3FFF80
3FFF00
0FFE00
03F800
ENDCHAR
STARTCHAR nine
ENCODING 57
SWIDTH 556 0
DWIDTH 21 0
BBX 19 27 1 0
BITMAP
03F800
0FFE00
1FFF00
3FFF80
7F3F80
7E0FC0
7C07C0
FC07C0
F807E0
F807E0
FC07E0
FC07E0
7C0FE0
7F1FE0
3FFFE0
3FFFE0
1FFFE0
07E7E0
0007C0
0007C0
7C07C0
7C0F80
7F3F80
3FFF00
1FFE00
0FFC00
03F000
ENDCHAR
STARTCHAR colon
ENCODING 58
SWIDTH 333 0
DWIDTH 13 0
BBX 6 20 3 0
BITMAP
FC
FC
FC
FC
FC
FC
00
00
00
00
00
00
00
00
FC
FC
FC
FC
FC
FC
ENDCHAR
STARTCHAR semicolon
ENCODING 59
SWIDTH 333 0
DWIDTH 13 0
BBX 6 26 3 -6
BITMAP
FC
FC
FC
FC
FC
FC
00
00
00
00
00
00
00
00
FC
FC
FC
FC
FC
FC
0C
1C
1C
38
F0
E0
ENDCHAR
STARTCHAR less
ENCODING 60
SWIDTH 584 0
DWIDTH 22 0
BBX 20 19 1 0
BITMAP
000030
0000F0
0007F0
001FF0
007FC0
03FF00
0FF800
7FE000
FF8000
FC0000
FF0000
7FE000
0FF800
03FF00
007FC0
001FF0
0003F0
0000F0
000030
ENDCHAR
STARTCHAR equal
ENCODING 61
SWIDTH 584 0
DWIDTH 22 0
BBX 19 13 2 3
BITMAP
FFFFE0
FFFFE0
FFFFE0
FFFFE0
000000
000000
000000
000000
000000
FFFFE0
FFFFE0
FFFFE0
FFFFE0
ENDCHAR
STARTCHAR greater
ENCODING 62
SWIDTH 584 0
DWIDTH 22 0
BBX 20 19 1 0
BITMAP
C00000
F00000
FE0000
FF8000
3FF000
0FFC00
01FF00
007FE0
000FF0
0003F0
000FF0
007FE0
01FF00
0FFC00
3FF000
FF8000
FE0000
F00000
C00000
ENDCHAR
STARTCHAR question
ENCODING 63
SWIDTH 611 0
DWIDTH 23 0
BBX 19 27 2 0
BITMAP
03F800
0FFF00
1FFF80
3FFFC0
7FFFC0
7E0FE0
7C07E0
FC07E0
FC07E0
0007E0
0007E0
001FC0
003F80
007F00
00FE00
00F800
01F800
01F000
01F000
000000
000000
000000
01F800
01F800
01F800
01F800
01F800
ENDCHAR
STARTCHAR at
ENCODING 64
SWIDTH 975 0
DWIDTH 37 0
BBX 29 27 4 0
BITMAP
001FE000
00FFFC00
01FFFF00
07F01F80
0F8007C0
1F0001E0
1E0700E0
3C1FCEF0
387FFE70
787FFC70
78F87C78
71F03C78
71E03C70
F1E03870
F1E03870
73E07870
79E078E0
79F0F9C0
79FFFFC0
3CFFFF80
3E7F7E00
1F1C3800
0F8003C0
07F01F80
03FFFF00
00FFFC00
001FE000
ENDCHAR
STARTCHAR A
ENCODING 65
SWIDTH 722 0
DWIDTH 27 0
BBX 26 27 1 0
BITMAP
007F0000
007F8000
007F8000
00FF8000
00FFC000
01FFC000
01FFC000
01F7E000
03F7E000
03F3E000
03E3F000
07E3F000
07E1F800
07C1F800
0FC1F800
0FC0FC00
0F80FC00
1FFFFC00
1FFFFE00
3FFFFE00
3FFFFE00
3FFFFF00
7E003F00
7E003F00
7E001F80
FC001F80
FC001FC0
ENDCHAR
STARTCHAR B
ENCODING 66
SWIDTH 722 0
DWIDTH 27 0
BBX 22 27 3 0
BITMAP
FFFF80
FFFFE0
FFFFF0
FFFFF8
FFFFF8
F801F8
F800FC
F800FC
F800F8
F801F8
FFFFF8
FFFFF0
FFFFE0
FFFFF0
FFFFF8
F801FC
F800FC
F8007C
F8007C
F8007C
F800FC
F801FC
FFFFFC
FFFFF8
FFFFF0
FFFFE0
FFFF00
ENDCHAR
STARTCHAR C
ENCODING 67
SWIDTH 722 0
DWIDTH 27 0
BBX 24 27 2 0
BITMAP
007F00
03FFE0
07FFF0
1FFFF8
3FFFFC
3FC1FE
7F007E
7E003F
FE003F
FC0000
FC0000
FC0000
FC0000
F80000
FC0000
FC0000
FC0000
FC003F
FE003F
7E007E
7F007E
3FC1FC
3FFFFC
1FFFF8
0FFFF0
03FFC0
00FF00
ENDCHAR
STARTCHAR D
ENCODING 68
SWIDTH 722 0
DWIDTH 27 0
BBX 23 27 3 0
BITMAP
FFFF00
FFFFC0
FFFFE0
FFFFF0
FFFFF8
F803FC
F801FC
F800FC
F8007E
F8007E
F8007E
F8007E
F8007E
F8007E
F8007E
F8007E
F8007E
F8007E
F800FC
F800FC
F801FC
F803F8
FFFFF0
FFFFF0
FFFFE0
FFFF80
FFFE00
ENDCHAR
STARTCHAR E
ENCODING 69
SWIDTH 667 0
DWIDTH 25 0
BBX 21 27 3 0
BITMAP
FFFFF0
FFFFF0
FFFFF0
FFFFF0
FFFFF0
F80000
F80000
F80000
F80000
F80000
FFFFE0
FFFFE0
FFFFE0
FFFFE0
FFFFE0
F80000
F80000
F80000
F80000
F80000
F80000
F80000
FFFFF8
FFFFF8
FFFFF8
FFFFF8
FFFFF8
ENDCHAR
STARTCHAR F
ENCODING 70
SWIDTH 611 0
DWIDTH 23 0
BBX 19 27 3 0
BITMAP
FFFFE0
FFFFE0
FFFFE0
FFFFE0
FFFFE0
FC0000
FC0000
FC0000
FC0000
FC0000
FC0000
FFFFC0
FFFFC0
FFFFC0
FFFFC0
FFFFC0
FC0000
FC0000
FC0000
FC0000
FC0000
FC0000
FC0000
FC0000
FC0000
FC0000
FC0000
ENDCHAR
STARTCHAR G
ENCODING 71
SWIDTH 778 0
DWIDTH 30 0
BBX 25 27 2 0
BITMAP
007F8000
03FFF000
07FFF800
0FFFFC00
1FFFFE00
3FC0FF00
7F003F00
7E001F80
FE001F80
FC000000
FC000000
FC000000
FC03FF80
F803FF80
FC03FF80
FC03FF80
FC03FF80
FC000F80
FE000F80
7E001F80
7F003F80
3FC0FF80
1FFFFF80
1FFFF780
07FFE780
03FFC780
007F0780
ENDCHAR
STARTCHAR H
ENCODING 72
SWIDTH 722 0
DWIDTH 27 0
BBX 22 27 3 0
BITMAP
F800FC
F800FC
F800FC
F800FC
F800FC
F800FC
F800FC
F800FC
F800FC
F800FC
FFFFFC
FFFFFC
FFFFFC
FFFFFC
FFFFFC
F800FC
F800FC
F800FC
F800FC
F800FC
F800FC
F800FC
F800FC
F800FC
F800FC
F800FC
F800FC
ENDCHAR
STARTCHAR I
ENCODING 73
SWIDTH 278 0
DWIDTH 11 0
BBX 6 27 2 0
BITMAP
FC
FC
FC
FC
FC
FC
FC
FC
FC
FC
FC
FC
FC
FC
FC
FC
FC
FC
FC
FC
FC
FC
FC
FC
FC
FC
FC
ENDCHAR
STARTCHAR J
ENCODING 74
SWIDTH 556 0
DWIDTH 21 0
BBX 17 27 1 0
BITMAP
000F80
000F80
000F80
000F80
000F80
000F80
000F80
000F80
000F80
000F80
000F80
000F80
000F80
000F80
000F80
000F80
F80F80
F80F80
F80F80
F80F80
FC0F80
FC1F80
7FFF80
7FFF00
3FFF00
1FFC00
07F000
ENDCHAR
STARTCHAR K
ENCODING 75
SWIDTH 722 0
DWIDTH 27 0
BBX 24 27 3 0
BITMAP
FC00FE
FC01FC
FC03F8
FC07F0
FC0FE0
FC1FC0
FC3F80
FC7F00
FCFE00
FDFC00
FFF800
FFF800
FFFC00
FFFC00
FFFE00
FF7F00
FE3F80
FC3F80
FC1FC0
FC0FE0
FC0FF0
FC07F0
FC03F8
FC01FC
FC01FE
FC00FE
FC007F
ENDCHAR
STARTCHAR L
ENCODING 76
SWIDTH 611 0
DWIDTH 23 0
BBX 19 27 3 0
BITMAP
FC0000
FC0000
FC0000
FC0000
FC0000
FC0000
FC0000
FC0000
FC0000
FC0000
FC0000
FC0000
FC0000
FC0000
FC0000
FC0000
FC0000
FC0000
FC0000
FC0000
FC0000
FC0000
FFFFE0
FFFFE0
FFFFE0
FFFFE0
FFFFE0
ENDCHAR
STARTCHAR M
ENCODING 77
SWIDTH 833 0
DWIDTH 32 0
BBX 26 27 3 0
BITMAP
FF003FC0
FF007FC0
FF807FC0
FF807FC0
FF807FC0
FF8077C0
FF80F7C0
FBC0F7C0
FBC0F7C0
FBC0F7C0
FBC1E7C0
F9E1E7C0
F9E1E7C0
F9E1E7C0
F9E3C7C0
F9F3C7C0
F8F3C7C0
F8F3C7C0
F8F387C0
F8F787C0
F87F87C0
F87F87C0
F87F87C0
F87F07C0
F87F07C0
F83F07C0
F83F07C0
ENDCHAR
STARTCHAR N
ENCODING 78
SWIDTH 722 0
DWIDTH 27 0
BBX 22 27 3 0
BITMAP
FC007C
FC007C
FE007C
FF007C
FF007C
FF807C
FF807C
FFC07C
FFE07C
FBE07C
F9F07C
F9F07C
F8F87C
F8F87C
F87C7C
F87E7C
F83E7C
F81F7C
F81F7C
F80FFC
F80FFC
F807FC
F803FC
F803FC
F801FC
F801FC
F800FC
ENDCHAR
STARTCHAR O
ENCODING 79
SWIDTH 778 0
DWIDTH 30 0
BBX 26 27 2 0
BITMAP
007F8000
03FFE000
07FFF800
1FFFFC00
3FFFFE00
3FC0FF00
7F003F00
7E003F80
FC001F80
FC000F80
FC000FC0
FC000FC0
F8000FC0
F8000FC0
F8000FC0
FC000FC0
FC000FC0
FC000F80
FC001F80
7E001F80
7F003F00
3FC0FF00
3FFFFE00
1FFFFC00
0FFFF800
03FFE000
007F8000
ENDCHAR
STARTCHAR P
ENCODING 80
SWIDTH 667 0
DWIDTH 25 0
BBX 21 27 3 0
BITMAP
FFFF00
FFFFC0
FFFFE0
FFFFF0
FFFFF0
FC03F0
FC01F8
FC01F8
FC01F8
FC01F8
FC01F8
FC03F0
FFFFF0
FFFFE0
FFFFE0
FFFF80
FFFE00
FC0000
FC0000
FC0000
FC0000
FC0000
FC0000
FC0000
FC0000
FC0000
FC0000
ENDCHAR
STARTCHAR Q
ENCODING 81
SWIDTH 778 0
DWIDTH 30 0
BBX 26 28 2 -1
BITMAP
007F8000
03FFE000
07FFF800
1FFFFC00
3FFFFE00
3FC0FF00
7F003F00
7E003F80
FC001F80
FC000F80
FC000FC0
FC000FC0
F8000FC0
F8000FC0
F8000FC0
FC000FC0
FC000FC0
FC018F80
FC03FF80
7E07FF80
7F01FF00
3FC0FF00
3FFFFE00
1FFFFF00
0FFFFF80
03FFEFC0
007F8780
00000300
ENDCHAR
STARTCHAR R
ENCODING 82
SWIDTH 722 0
DWIDTH 27 0
BBX 23 27 3 0
BITMAP
FFFF80
FFFFE0
FFFFF0
FFFFF8
FFFFFC
F801FC
F800FC
F8007C
F8007C
F800FC
F800FC
FFFFF8
FFFFF0
FFFFC0
FFFFF0
FFFFF8
F803F8
F801F8
F800F8
F800FC
F800FC
F800FC
F800FC
F800FC
F800FC
F800FC
F800FE
ENDCHAR
STARTCHAR S
ENCODING 83
SWIDTH 667 0
DWIDTH 25 0
BBX 23 27 1 0
BITMAP
01FE00
07FFC0
1FFFE0
3FFFF0
3FFFF8
7F01F8
7E00FC
7C00FC
7C0000
7E0000
7FC000
3FFE00
3FFFC0
0FFFF0
03FFFC
003FFC
0001FE
00007E
FC007E
7C007E
7E007E
7F00FC
3FFFFC
3FFFF8
1FFFF0
07FFE0
01FF00
ENDCHAR
STARTCHAR T
ENCODING 84
SWIDTH 611 0
DWIDTH 23 0
BBX 22 27 1 0
BITMAP
FFFFFC
FFFFFC
FFFFFC
FFFFFC
FFFFFC
00F800
00F800
00F800
00F800
00F800
00F800
00F800
00F800
00F800
00F800
00F800
00F800
00F800
00F800
00F800
00F800
00F800
00F800
00F800
00F800
00F800
00F800
ENDCHAR
STARTCHAR U
ENCODING 85
SWIDTH 722 0
DWIDTH 27 0
BBX 22 27 3 0
BITMAP
FC00FC
FC00FC
FC00FC
FC00FC
FC00FC
FC00FC
FC00FC
FC00FC
FC00FC
FC00FC
FC00FC
FC00FC
FC00FC
FC00FC
FC00FC
FC00FC
FC00FC
FC00FC
FC00FC
FC00FC
FE01F8
7F03F8
7FFFF0
3FFFF0
1FFFE0
0FFF80
01FE00
ENDCHAR
STARTCHAR V
ENCODING 86
SWIDTH 667 0
DWIDTH 25 0
BBX 23 27 1 0
BITMAP
FC003E
FC007E
7E007E
7E007C
7E00FC
3E00FC
3F00F8
3F00F8
1F01F8
1F81F0
1F81F0
0F83F0
0F83E0
0FC3E0
07C7E0
07C7C0
07E7C0
03E7C0
03EF80
03EF80
01FF80
01FF00
01FF00
00FF00
00FE00
00FE00
007E00
ENDCHAR
STARTCHAR W
ENCODING 87
SWIDTH 944 0
DWIDTH 36 0
BBX 34 27 1 0
BITMAP
FC03F00FC0
FC03F00FC0
FC07F80FC0
7E07F80F80
7E07F81F80
7E07F81F80
7E07F81F00
3F0FFC1F00
3F0F7C1F00
3F0F3C3F00
1F0F3C3E00
1F0F3C3E00
1F9F3E3E00
1F9E3E7C00
0F9E1E7C00
0F9E1E7C00
0FDE1E7C00
07FE1F7800
07FC1FF800
07FC0FF800
07FC0FF000
03FC0FF000
03FC0FF000
03F80FF000
01F807E000
01F807E000
01F807E000
ENDCHAR
STARTCHAR X
ENCODING 88
SWIDTH 667 0
DWIDTH 25 0
BBX 23 27 1 0
BITMAP
FE00FE
7F00FC
3F01FC
3F81F8
1F83F0
1FC3F0
0FC7E0
07EFC0
07FFC0
03FF80
01FF80
01FF00
00FE00
00FE00
00FF00
01FF80
03FF80
03FFC0
07EFC0
0FE7E0
0FC7F0
1F83F0
3F83F8
3F01FC
7F01FC
FE00FE
FC007E
ENDCHAR
STARTCHAR Y
ENCODING 89
SWIDTH 667 0
DWIDTH 25 0
BBX 24 27 1 0
BITMAP
FE007F
FE007E
7F00FC
3F00FC
3F01F8
1F81F8
1F83F0
0FC3F0
0FC7E0
07E7E0
07E7C0
03FFC0
01FF80
01FF80
00FF00
00FE00
007E00
007E00
007E00
007E00
007E00
007E00
007E00
007E00
007E00
007E00
007E00
ENDCHAR
STARTCHAR Z
ENCODING 90
SWIDTH 611 0
DWIDTH 23 0
BBX 21 27 1 0
BITMAP
FFFFF8
FFFFF8
FFFFF8
FFFFF8
FFFFF8
0007F0
0007F0
000FE0
001FC0
003F80
007F00
007F00
00FE00
01FC00
03F800
07F000
07E000
0FE000
1FC000
3F8000
7F0000
FE0000
FFFFF8
FFFFF8
FFFFF8
FFFFF8
FFFFF8
ENDCHAR
STARTCHAR bracketleft
ENCODING 91
SWIDTH 333 0
DWIDTH 13 0
BBX 10 35 2 -8
BITMAP
FFC0
FFC0
FFC0
FFC0
F800
F800
F800
F800
F800
F800
F800
F800
F800
F800
F800
F800
F800
F800
F800
F800
F800
F800
F800
F800
F800
F800
F800
F800
F800
F800
F800
FFC0
FFC0
FFC0
FFC0
ENDCHAR
STARTCHAR backslash
ENCODING 92
SWIDTH 278 0
DWIDTH 11 0
BBX 13 27 -1 0
BITMAP
F000
F800
7800
7800
7C00
7C00
3C00
3E00
3E00
1E00
1F00
1F00
0F00
0F80
0F80
0780
0780
07C0
03C0
03C0
03E0
01E0
01E0
01F0
00F0
00F0
00F8
ENDCHAR
STARTCHAR bracketright
ENCODING 93
SWIDTH 333 0
DWIDTH 13 0
BBX 9 35 1 -8
BITMAP
FF80
FF80
FF80
FF80
0780
0780
0780
0780
0780
0780
0780
0780
0780
0780
0780
0780
0780
0780
0780
0780
0780
0780
0780
0780
0780
0780
0780
0780
0780
0780
0780
FF80
FF80
FF80
FF80
ENDCHAR
STARTCHAR asciicircum
ENCODING 94
SWIDTH 584 0
DWIDTH 22 0
BBX 16 14 3 13
BITMAP
03C0
07E0
07E0
07F0
0FF0
0F78
1E78
1E3C
3C3C
3C3E
781E
781F
F00F
F00F
ENDCHAR
STARTCHAR underscore
ENCODING 95
SWIDTH 556 0
DWIDTH 21 0
BBX 21 2 0 -5
BITMAP
FFFFF8
FFFFF8
ENDCHAR
STARTCHAR grave
ENCODING 96
SWIDTH 333 0
DWIDTH 13 0
BBX 9 6 -1 23
BITMAP
FC00
7E00
3E00
1F00
0F80
0780
ENDCHAR
STARTCHAR a
ENCODING 97
SWIDTH 556 0
DWIDTH 21 0
BBX 19 20 1 0
BITMAP
03FC00
0FFF00
3FFF80
3FFF80
7F1FC0
7C0FC0
7C07C0
000FC0
01FFC0
1FFFC0
3FF7C0
7F07C0
7C07C0
F807C0
F80FC0
FC1FC0
FFFFC0
7FF7C0
3FE7C0
1F87E0
ENDCHAR
STARTCHAR b
ENCODING 98
SWIDTH 611 0
DWIDTH 23 0
BBX 20 27 2 0
BITMAP
FC0000
FC0000
FC0000
FC0000
FC0000
FC0000
FC0000
FC7C00
FDFF00
FFFF80
FFFFC0
FFFFE0
FE07E0
FC03F0
FC03F0
FC03F0
F803F0
F803F0
FC03F0
FC03F0
FC03E0
FE07E0
FF9FE0
FFFFC0
FFFF80
FDFF00
FC7C00
ENDCHAR
STARTCHAR c
ENCODING 99
SWIDTH 556 0
DWIDTH 21 0
BBX 19 20 1 0
BITMAP
01F800
0FFF00
1FFF80
3FFFC0
3FDFC0
7E07E0
7C07E0
7C0000
FC0000
FC0000
FC0000
FC0000
FC07E0
7C07E0
7E07C0
7F9FC0
3FFF80
1FFF00
0FFE00
03F800
ENDCHAR
STARTCHAR d
ENCODING 100
SWIDTH 611 0
DWIDTH 23 0
BBX 20 27 1 0
BITMAP
0001F0
0001F0
0001F0
0001F0
0001F0
0001F0
0001F0
03E1F0
0FF9F0
1FFDF0
3FFFF0
7FFFF0
7E07F0
7E03F0
FC03F0
FC01F0
FC01F0
FC01F0
FC01F0
7C01F0
7E03F0
7E07F0
3F9FF0
3FFFF0
1FFDF0
0FF9F0
03F1F0
ENDCHAR
STARTCHAR e
ENCODING 101
SWIDTH 556 0
DWIDTH 21 0
BBX 19 20 1 0
BITMAP
03F800
0FFE00
1FFF00
3FFF80
7FBFC0
7C0FC0
FC07E0
F807E0
FFFFE0
FFFFE0
FFFFE0
F80000
F80000
FC0000
7C07E0
7F1FC0
3FFFC0
1FFF80
0FFE00
03F800
ENDCHAR
STARTCHAR f
ENCODING 102
SWIDTH 333 0
DWIDTH 13 0
BBX 12 27 0 0
BITMAP
03F0
07F0
0FF0
0FF0
1FC0
1F80
1F80
FFF0
FFF0
FFF0
FFF0
1F80
1F80
1F80
1F80
1F80
1F80
1F80
1F80
1F80
1F80
1F80
1F80
1F80
1F80
1F80
1F80
ENDCHAR
STARTCHAR g
ENCODING 103
SWIDTH 611 0
DWIDTH 23 0
BBX 19 28 2 -8
BITMAP
07E3E0
1FF3E0
3FFBE0
7FFFE0
7FFFE0
FE0FE0
FC07E0
F807E0
F803E0
F803E0
F803E0
F803E0
F807E0
FC07E0
FE0FE0
7FFFE0
7FFFE0
3FFBE0
1FF3E0
07E3E0
0003E0
0007E0
FC07E0
FE0FC0
7FFFC0
3FFF80
1FFF00
07F800
ENDCHAR
STARTCHAR h
ENCODING 104
SWIDTH 611 0
DWIDTH 23 0
BBX 19 27 2 0
BITMAP
FC0000
FC0000
FC0000
FC0000
FC0000
FC0000
FC0000
FC7E00
FDFF80
FFFFC0
FFFFC0
FFFFC0
FE07E0
FC07E0
FC07E0
FC07E0
FC07E0
FC07E0
FC07E0
FC07E0
FC07E0
FC07E0
FC07E0
FC07E0
FC07E0
FC07E0
FC07E0
ENDCHAR
STARTCHAR i
ENCODING 105
SWIDTH 278 0
DWIDTH 11 0
BBX 5 27 3 0
BITMAP
F8
F8
F8
F8
F8
00
00
F8
F8
F8
F8
F8
F8
F8
F8
F8
F8
F8
F8
F8
F8
F8
F8
F8
F8
F8
F8
ENDCHAR
STARTCHAR j
ENCODING 106
SWIDTH 278 0
DWIDTH 11 0
BBX 8 35 0 -8
BITMAP
1F
1F
1F
1F
1F
00
00
1F
1F
1F
1F
1F
1F
1F
1F
1F
1F
1F
1F
1F
1F
1F
1F
1F
1F
1F
1F
1F
1F
1F
3F
FF
FE
FE
F8
ENDCHAR
STARTCHAR k
ENCODING 107
SWIDTH 556 0
DWIDTH 21 0
BBX 18 27 3 0
BITMAP
F80000
F80000
F80000
F80000
F80000
F80000
F80000
F81FC0
F83F80
F87F00
F87E00
F8FC00
F9F800
FBF000
FFE000
FFE000
FFF000
FFF800
FFF800
FCFC00
F8FC00
F87E00
F87F00
F83F00
F81F80
F81F80
F80FC0
ENDCHAR
STARTCHAR l
ENCODING 108
SWIDTH 278 0
DWIDTH 11 0
BBX 5 27 3 0
BITMAP
F8
F8
F8
F8
F8
F8
F8
F8
F8
F8
F8
F8
F8
F8
F8
F8
F8
F8
F8
F8
F8
F8
F8
F8
F8
F8
F8
ENDCHAR
STARTCHAR m
ENCODING 109
SWIDTH 889 0
DWIDTH 34 0
BBX 29 20 2 0
BITMAP
FC7C0F80
FDFF3FE0
FFFF3FF0
FFFFFFF8
FFFFFFF8
FC0FC1F8
FC0FC0F8
FC0FC0F8
FC0FC0F8
FC0FC0F8
FC0FC0F8
FC0FC0F8
FC0FC0F8
FC0FC0F8
FC0FC0F8
FC0FC0F8
FC0FC0F8
FC0FC0F8
FC0FC0F8
FC0FC0F8
ENDCHAR
STARTCHAR n
ENCODING 110
SWIDTH 611 0
DWIDTH 23 0
BBX 19 20 2 0
BITMAP
FC7E00
FDFF80
FFFFC0
FFFFC0
FFFFC0
FE07E0
FC07E0
FC07E0
FC07E0
FC07E0
FC07E0
FC07E0
FC07E0
FC07E0
FC07E0
FC07E0
FC07E0
FC07E0
FC07E0
FC07E0
ENDCHAR
STARTCHAR o
ENCODING 111
SWIDTH 611 0
DWIDTH 23 0
BBX 21 20 1 0
BITMAP
01FC00
07FF80
1FFFC0
1FFFE0
3FDFF0
7E03F0
7E01F0
7C01F8
FC01F8
FC01F8
FC01F8
FC01F8
7C01F8
7E01F0
7E03F0
3FDFF0
3FFFE0
1FFFC0
07FF00
01FC00
ENDCHAR
STARTCHAR p
ENCODING 112
SWIDTH 611 0
DWIDTH 23 0
BBX 20 28 2 -8
BITMAP
F87C00
F9FF00
FBFF80
FFFFC0
FFFFE0
FE07E0
FC03F0
FC03F0
FC03F0
FC03F0
F803F0
FC03F0
FC03F0
FC03E0
FE07E0
FF9FE0
FFFFC0
FFFF80
FDFF00
FC7C00
FC0000
FC0000
FC0000
FC0000
FC0000
FC0000
FC0000
FC0000
ENDCHAR
STARTCHAR q
ENCODING 113
SWIDTH 611 0
DWIDTH 23 0
BBX 20 28 1 -8
BITMAP
03F000
0FF9F0
1FFDF0
3FFFF0
3FFFF0
7F07F0
7E03F0
7C03F0
FC01F0
FC01F0
FC01F0
FC01F0
FC03F0
7C03F0
7E07F0
3FFFF0
3FFFF0
1FFDF0
0FF9F0
03F1F0
0001F0
0001F0
0001F0
0001F0
0001F0
0001F0
0001F0
0001F0
ENDCHAR
STARTCHAR r
ENCODING 114
SWIDTH 389 0
DWIDTH 15 0
BBX 12 20 2 0
BITMAP
FC70
FDF0
FFF0
FFF0
FFF0
FF00
FE00
FC00
FC00
FC00
FC00
FC00
FC00
FC00
FC00
FC00
FC00
FC00
FC00
FC00
ENDCHAR
STARTCHAR s
ENCODING 115
SWIDTH 556 0
DWIDTH 21 0
BBX 19 20 1 0
BITMAP
03F800
1FFF00
3FFF80
3FFF80
7E0FC0
7C07C0
7E0000
7FE000
7FFE00
3FFF80
0FFFC0
01FFC0
001FE0
FC07E0
FC07E0
7E0FC0
7FFFC0
3FFF80
1FFF00
03F800
ENDCHAR
STARTCHAR t
ENCODING 116
SWIDTH 333 0
DWIDTH 13 0
BBX 12 25 0 0
BITMAP
1F00
1F00
1F00
1F00
1F00
FFF0
FFF0
FFF0
FFF0
1F00
1F00
1F00
1F00
1F00
1F00
1F00
1F00
1F00
1F00
1F00
1F80
1FF0
1FF0
0FF0
07F0
ENDCHAR
STARTCHAR u
ENCODING 117
SWIDTH 611 0
DWIDTH 23 0
BBX 18 20 3 0
BITMAP
F80FC0
F80FC0
F80FC0
F80FC0
F80FC0
F80FC0
F80FC0
F80FC0
F80FC0
F80FC0
F80FC0
F80FC0
F80FC0
F80FC0
FC1FC0
FF7FC0
FFFFC0
7FF7C0
3FE7C0
1F87C0
ENDCHAR
STARTCHAR v
ENCODING 118
SWIDTH 556 0
DWIDTH 21 0
BBX 19 20 1 0
BITMAP
FC03E0
FC03E0
FC07E0
7C07C0
7E07C0
7E0FC0
3E0F80
3F0F80
1F1F80
1F1F00
1F1F00
0F9E00
0FBE00
0FBE00
07FC00
07FC00
07FC00
03F800
03F800
01F800
ENDCHAR
STARTCHAR w
ENCODING 119
SWIDTH 778 0
DWIDTH 30 0
BBX 28 20 1 0
BITMAP
F81F81F0
F81F83F0
FC1F83E0
FC3F83E0
7C3F83E0
7C3FC3E0
7C3BC7C0
7E3BC7C0
3E7BC7C0
3E79E780
3E79EF80
1F71EF80
1F71EF80
1FF1EF00
1FF0FF00
0FF0FF00
0FE0FE00
0FE0FE00
07E07E00
07E07E00
ENDCHAR
STARTCHAR x
ENCODING 120
SWIDTH 556 0
DWIDTH 21 0
BBX 19 20 1 0
BITMAP
FE07E0
7E0FC0
3F1F80
3F9F80
1FBF00
0FFE00
07FE00
07FC00
03F800
03F800
07FC00
07FC00
0FFE00
0FFE00
1FBF00
3F1F80
3F1F80
7E0FC0
FE0FE0
FC07E0
ENDCHAR
STARTCHAR y
ENCODING 121
SWIDTH 556 0
DWIDTH 21 0
BBX 19 28 1 -8
BITMAP
F803E0
FC07E0
FC07E0
7C07C0
7E07C0
7E0FC0
3E0F80
3F0F80
3F1F00
1F1F00
1F1F00
1F9E00
0FBE00
0FBE00
07FC00
07FC00
07FC00
03F800
03F800
03F800
01F000
01F000
03F000
07E000
3FE000
3FC000
3F8000
3F0000
ENDCHAR
STARTCHAR z
ENCODING 122
SWIDTH 500 0
DWIDTH 19 0
BBX 17 20 1 0
BITMAP
FFFF80
FFFF80
FFFF80
FFFF80
003F80
007F00
00FE00
01FC00
03F800
07F000
07E000
0FC000
1F8000
3F8000
7F0000
FE0000
FFFF80
FFFF80
FFFF80
FFFF80
ENDCHAR
STARTCHAR braceleft
ENCODING 123
SWIDTH 389 0
DWIDTH 15 0
BBX 12 34 2 -7
BITMAP
01F0
07F0
0FF0
0F80
1F00
1F00
1F00
1F00
1F00
1F00
1F00
1F00
1F00
1F00
1F00
FE00
FC00
F800
FE00
3E00
1F00
1F00
1F00
1F00
1F00
1F00
1F00
1F00
1F00
1F00
0F80
0FF0
07F0
03F0
ENDCHAR
STARTCHAR bar
ENCODING 124
SWIDTH 280 0
DWIDTH 11 0
BBX 4 27 3 0
BITMAP
F0
F0
F0
F0
F0
F0
F0
F0
F0
F0
F0
F0
F0
F0
F0
F0
F0
F0
F0
F0
F0
F0
F0
F0
F0
F0
F0
ENDCHAR
STARTCHAR braceright
ENCODING 125
SWIDTH 389 0
DWIDTH 15 0
BBX 12 34 1 -7
BITMAP
F800
FE00
FF00
3F00
0F00
0F00
0F00
0F00
0F00
0F00
0F00
0F00
0F00
0F80
0F80
07F0
03F0
01F0
07F0
0FC0
0F80
0F00
0F00
0F00
0F00
0F00
0F00
0F00
0F00
0F00
1F00
FF00
FE00
FC00
ENDCHAR
STARTCHAR asciitilde
ENCODING 126
SWIDTH 584 0
DWIDTH 22 0
BBX 18 7 2 6
BITMAP
1E0080
3FC180
7FF3C0
FFFFC0
61FF80
407F00
000C00
ENDCHAR
STARTCHAR exclamdown
ENCODING 161
SWIDTH 333 0
DWIDTH 13 0
BBX 6 27 3 -7
BITMAP
7C
7C
7C
7C
7C
00
00
38
38
38
38
78
78
7C
7C
7C
7C
7C
7C
FC
FC
FC
FC
FC
FC
FC
FC
ENDCHAR
STARTCHAR cent
ENCODING 162
SWIDTH 556 0
DWIDTH 21 0
BBX 19 27 1 -4
BITMAP
000C00
000C00
000C00
01FC00
0FFE00
1FFF80
3FFFC0
3FFFC0
7E37E0
7C37E0
7C67E0
FC6000
FC6000
FC4000
FCC000
FCC7E0
7CC7E0
7F87C0
7F9FC0
3FFF80
1FFF00
0FFE00
03F800
030000
060000
060000
060000
ENDCHAR
STARTCHAR sterling
ENCODING 163
SWIDTH 556 0
DWIDTH 21 0
BBX 19 27 1 0
BITMAP
03F800
0FFF00
1FFF80
3FFFC0
7F1FC0
7E07E0
7C03E0
7C03E0
7C0000
7E0000
3E0000
3F0000
FFF800
FFF800
0F8000
0F8000
0F8000
0F8000
0F0000
0F0000
1E0000
1DE040
7FFFE0
FFFFE0
7FFFE0
78FFE0
203F80
ENDCHAR
STARTCHAR currency
ENCODING 164
SWIDTH 556 0
DWIDTH 21 0
BBX 21 21 0 3
BITMAP
200030
700078
F8F8F8
7FFFF0
3FFFE0
1FFFC0
1F8FC0
1F03C0
1E03E0
1E03E0
3E03E0
3E03E0
1E03E0
1F03C0
1F8FC0
1FFFC0
3FFFE0
7FFFF0
F8F8F8
F00078
600030
ENDCHAR
STARTCHAR yen
ENCODING 165
SWIDTH 556 0
DWIDTH 21 0
BBX 21 27 0 0
BITMAP
FC00F8
FC01F8
7E01F0
3E03F0
3F03E0
1F07E0
1F87C0
0F87C0
0FCF80
07CF80
07FF00
7FFFF8
7FFFF8
01FC00
01FC00
00FC00
00F800
7FFFF8
7FFFF8
00F800
00F800
00F800
00F800
00F800
00F800
00F800
00F800
ENDCHAR
STARTCHAR brokenbar
ENCODING 166
SWIDTH 280 0
DWIDTH 11 0
BBX 4 27 3 0
BITMAP
F0
F0
F0
F0
F0
F0
F0
F0
F0
F0
F0
00
00
00
00
00
F0
F0
F0
F0
F0
F0
F0
F0
F0
F0
F0
ENDCHAR
STARTCHAR section
ENCODING 167
SWIDTH 556 0
DWIDTH 21 0
BBX 19 34 1 -7
BITMAP
01F800
07FE00
1FFF00
1FFF00
3F1F80
3E0F80
3E0F80
3E0000
3F8000
1FE000
1FF800
1FFE00
3FFF80
78FFC0
783FC0
F80FE0
F807E0
FE03E0
7F83E0
7FE3C0
3FFF80
0FFF00
03FF00
00FF80
003F80
001F80
000FC0
7E0FC0
3E0F80
3F1F80
3FFF80
1FFF00
0FFE00
03F800
ENDCHAR
STARTCHAR dieresis
ENCODING 168
SWIDTH 333 0
DWIDTH 13 0
BBX 12 4 0 23
BITMAP
F8F0
F8F0
F8F0
F8F0
ENDCHAR
STARTCHAR copyright
ENCODING 169
SWIDTH 737 0
DWIDTH 28 0
BBX 28 27 0 0
BITMAP
003FC000
01FFF800
07FFFE00
0FF0FF00
1F801F80
3E0007C0
3C1FC3E0
7C7FE3E0
78FFF1F0
F0F078F0
F1E038F0
F1E000F0
F1E000F0
F1E000F0
F1E000F0
F1E038F0
F1F038F0
F8FCF8F0
787FF1F0
7C3FE3E0
3C0F83E0
3F0007C0
1F801F80
0FF0FF00
07FFFE00
01FFF800
003FC000
ENDCHAR
STARTCHAR ordfeminine
ENCODING 170
SWIDTH 370 0
DWIDTH 14 0
BBX 12 16 1 11
BITMAP
1F80
7FE0
7FE0
F0E0
00E0
3FE0
7FE0
F0E0
E0E0
F3E0
FFE0
3CF0
0000
FFF0
FFF0
FFF0
ENDCHAR
STARTCHAR guillemotleft
ENCODING 171
SWIDTH 556 0
DWIDTH 21 0
BBX 15 16 3 3
BITMAP
0202
0606
0E0E
1E1E
3E3E
7CFC
F8F0
E0E0
E0F0
F8F8
7C7C
3E3E
1E1E
0E0E
0602
0200
ENDCHAR
STARTCHAR logicalnot
ENCODING 172
SWIDTH 584 0
DWIDTH 22 0
BBX 19 12 2 4
BITMAP
FFFFE0
FFFFE0
FFFFE0
FFFFE0
0003E0
0003E0
0003E0
0003E0
0003E0
0003E0
0003E0
0003E0
ENDCHAR
STARTCHAR registered
ENCODING 174
SWIDTH 737 0
DWIDTH 28 0
BBX 28 27 0 0
BITMAP
003FC000
01FFF800
07FFFE00
0FF0FF00
1F801F80
3F000FC0
3CFE03E0
7CFFE3E0
78FFF1F0
F0F0F0F0
F0F070F0
F0F070F0
F0FFF0F0
F0FFE0F0
F0FF80F0
F0F380F0
F0F3C0F0
F8F1E0F0
78F1E1E0
7CF0F3E0
3CF07BE0
3F0007C0
1F801F80
0FF0FF00
07FFFE00
01FFF800
003FC000
ENDCHAR
STARTCHAR macron
ENCODING 175
SWIDTH 333 0
DWIDTH 13 0
BBX 13 3 0 23
BITMAP
FFF8
FFF8
FFF8
ENDCHAR
STARTCHAR degree
ENCODING 176
SWIDTH 400 0
DWIDTH 15 0
BBX 11 11 2 16
BITMAP
1F00
3F80
71C0
60E0
C060
C060
C060
60E0
71C0
3F80
1F00
ENDCHAR
STARTCHAR plusminus
ENCODING 177
SWIDTH 584 0
DWIDTH 22 0
BBX 19 19 2 0
BITMAP
01E000
01E000
01E000
01E000
01E000
FFFFE0
FFFFE0
FFFFE0
FFFFE0
01E000
01E000
01E000
01E000
01E000
000000
FFFFE0
FFFFE0
FFFFE0
FFFFE0
ENDCHAR
STARTCHAR twosuperior
ENCODING 178
SWIDTH 333 0
DWIDTH 13 0
BBX 12 16 0 11
BITMAP
0F80
3FE0
7FF0
78F0
7070
7070
00F0
01F0
03E0
07C0
1F00
3E00
7C00
7FF0
7FF0
FFF0
ENDCHAR
STARTCHAR threesuperior
ENCODING 179
SWIDTH 333 0
DWIDTH 13 0
BBX 12 16 0 11
BITMAP
0F80
3FE0
7FE0
70F0
70F0
00F0
00E0
07C0
07E0
03F0
00F0
F070
F0F0
7FF0
3FE0
1F80
ENDCHAR
STARTCHAR acute
ENCODING 180
SWIDTH 333 0
DWIDTH 13 0
BBX 9 6 4 23
BITMAP
0F80
1F00
3E00
3C00
7800
F000
ENDCHAR
STARTCHAR mu
ENCODING 181
SWIDTH 611 0
DWIDTH 23 0
BBX 18 28 3 -8
BITMAP
F80FC0
F80FC0
F80FC0
F80FC0
F80FC0
F80FC0
F80FC0
F80FC0
F80FC0
F80FC0
F80FC0
F80FC0
F80FC0
F80FC0
FC1FC0
FF7FC0
FFFFC0
FFF7C0
FFE7C0
FFC7C0
F80000
F80000
F80000
F80000
F80000
F80000
F80000
F80000
ENDCHAR
STARTCHAR paragraph
ENCODING 182
SWIDTH 556 0
DWIDTH 21 0
BBX 20 34 0 -7
BITMAP
07FFF0
3FFFF0
7FFFF0
FFF0F0
FFF0F0
FFF0F0
FFF0F0
FFF0F0
FFF0F0
FFF0F0
7FF0F0
3FF0F0
1FF0F0
00F0F0
00F0F0
00F0F0
00F0F0
00F0F0
00F0F0
00F0F0
00F0F0
00F0F0
00F0F0
00F0F0
00F0F0
00F0F0
00F0F0
00F0F0
00F0F0
00F0F0
00F0F0
00F0F0
00F0F0
00F0F0
ENDCHAR
STARTCHAR periodcentered
ENCODING 183
SWIDTH 278 0
DWIDTH 11 0
BBX 6 6 2 7
BITMAP
38
7C
FC
FC
7C
78
ENDCHAR
STARTCHAR cedilla
ENCODING 184
SWIDTH 333 0
DWIDTH 13 0
BBX 9 9 0 -9
BITMAP
0C00
1800
3F00
3F80
0380
0380
4780
FF00
7E00
ENDCHAR
STARTCHAR onesuperior
ENCODING 185
SWIDTH 333 0
DWIDTH 13 0
BBX 8 16 1 11
BITMAP
07
0F
3F
FF
FF
0F
0F
0F
0F
0F
0F
0F
0F
0F
0F
0F
ENDCHAR
STARTCHAR ordmasculine
ENCODING 186
SWIDTH 365 0
DWIDTH 14 0
BBX 14 16 0 11
BITMAP
0FC0
3FF0
7FF8
7878
F03C
F03C
F03C
F038
7878
7FF8
3FF0
0FC0
0000
7FF8
7FF8
7FF8
ENDCHAR
STARTCHAR guillemotright
ENCODING 187
SWIDTH 556 0
DWIDTH 21 0
BBX 15 16 3 3
BITMAP
8080
C0C0
E0E0
F0F0
FCF8
3E7E
1E1E
0E0E
1E0E
3E1E
7C7E
F8F8
F0F0
E0E0
C0C0
0080
ENDCHAR
STARTCHAR onequarter
ENCODING 188
SWIDTH 834 0
DWIDTH 32 0
BBX 28 27 1 0
BITMAP
07000E00
0F000C00
3F001C00
FF003800
FF003800
0F007000
0F006000
0F00E000
0F01C000
0F01C000
0F038000
0F0703C0
0F0707C0
0F0E0FC0
0F0E0DC0
0F1C1DC0
003839C0
003831C0
007071C0
0070E1C0
00E0FFF0
01C0FFF0
01C0FFF0
038001C0
038001C0
070001C0
0E0001C0
ENDCHAR
STARTCHAR onehalf
ENCODING 189
SWIDTH 834 0
DWIDTH 32 0
BBX 29 27 1 0
BITMAP
07000E00
0F000C00
3F001C00
FF003800
FF003800
0F007000
0F006000
0F00E000
0F01C000
0F01C000
0F0387C0
0F071FF0
0F073FF0
0F0E3C78
0F0E3878
0F1C7838
00380078
00380078
007000F0
007003F0
00E007C0
01C00F80
01C01F00
03803C00
03803FF8
07007FF8
0E007FF8
ENDCHAR
STARTCHAR threequarters
ENCODING 190
SWIDTH 834 0
DWIDTH 32 0
BBX 29 27 1 0
BITMAP
1F000380
7FC00700
7FE00700
F1E00E00
E0E01C00
00E01C00
01E03800
0FC03800
0FC07000
07E0E000
00F0E000
E0F1C1E0
F0E1C3E0
FFE387E0
7FC707E0
1F070EE0
000E1CE0
000E1CE0
001C38E0
003870E0
00387FF8
00707FF8
00707FF8
00E000E0
01C000E0
01C000E0
038000E0
ENDCHAR
STARTCHAR questiondown
ENCODING 191
SWIDTH 611 0
DWIDTH 23 0
BBX 19 27 2 -7
BITMAP
01F000
01F000
01F000
01F000
01F000
000000
000000
000000
01F000
01F000
01F000
03F000
07E000
1FC000
3F8000
7F0000
7E0000
FC0000
FC0000
FC07E0
FC07E0
FC07E0
7F0FC0
7FFFC0
3FFF80
1FFF00
07FC00
ENDCHAR
STARTCHAR Agrave
ENCODING 192
SWIDTH 722 0
DWIDTH 27 0
BBX 26 36 1 0
BITMAP
03E00000
01F00000
00F80000
00780000
003C0000
001E0000
00000000
00000000
00000000
007F0000
007F8000
007F8000
00FF8000
00FFC000
01FFC000
01FFC000
01F7E000
03F7E000
03F3E000
03E3F000
07E3F000
07E1F800
07C1F800
0FC1F800
0FC0FC00
0F80FC00
1FFFFC00
1FFFFE00
3FFFFE00
3FFFFE00
3FFFFF00
7E003F00
7E003F00
7E001F80
FC001F80
FC001FC0
ENDCHAR
STARTCHAR Aacute
ENCODING 193
SWIDTH 722 0
DWIDTH 27 0
BBX 26 36 1 0
BITMAP
0003F000
0007E000
0007C000
000F8000
001F0000
001E0000
00000000
00000000
00000000
007F0000
007F8000
007F8000
00FF8000
00FFC000
01FFC000
01FFC000
01F7E000
03F7E000
03F3E000
03E3F000
07E3F000
07E1F800
07C1F800
0FC1F800
0FC0FC00
0F80FC00
1FFFFC00
1FFFFE00
3FFFFE00
3FFFFE00
3FFFFF00
7E003F00
7E003F00
7E001F80
FC001F80
FC001FC0
ENDCHAR
STARTCHAR Acircumflex
ENCODING 194
SWIDTH 722 0
DWIDTH 27 0
BBX 26 36 1 0
BITMAP
003E0000
003F0000
007F8000
00F7C000
01E3C000
03E1E000
00000000
00000000
00000000
007F0000
007F8000
007F8000
00FF8000
00FFC000
01FFC000
01FFC000
01F7E000
03F7E000
03F3E000
03E3F000
07E3F000
07E1F800
07C1F800
0FC1F800
0FC0FC00
0F80FC00
1FFFFC00
1FFFFE00
3FFFFE00
3FFFFE00
3FFFFF00
7E003F00
7E003F00
7E001F80
FC001F80
FC001FC0
ENDCHAR
STARTCHAR Atilde
ENCODING 195
SWIDTH 722 0
DWIDTH 27 0
BBX 26 35 1 0
BITMAP
00707000
01FCE000
01FFE000
039FC000
03038000
00000000
00000000
00000000
007F0000
007F8000
007F8000
00FF8000
00FFC000
01FFC000
01FFC000
01F7E000
03F7E000
03F3E000
03E3F000
07E3F000
07E1F800
07C1F800
0FC1F800
0FC0FC00
0F80FC00
1FFFFC00
1FFFFE00
3FFFFE00
3FFFFE00
3FFFFF00
7E003F00
7E003F00
7E001F80
FC001F80
FC001FC0
ENDCHAR
STARTCHAR Adieresis
ENCODING 196
SWIDTH 722 0
DWIDTH 27 0
BBX 26 34 1 0
BITMAP
01E3E000
01E3E000
01E3E000
01E3E000
00000000
00000000
00000000
007F0000
007F8000
007F8000
00FF8000
00FFC000
01FFC000
01FFC000
01F7E000
03F7E000
03F3E000
03E3F000
07E3F000
07E1F800
07C1F800
0FC1F800
0FC0FC00
0F80FC00
1FFFFC00
1FFFFE00
3FFFFE00
3FFFFE00
3FFFFF00
7E003F00
7E003F00
7E001F80
FC001F80
FC001FC0
ENDCHAR
STARTCHAR Aring
ENCODING 197
SWIDTH 722 0
DWIDTH 27 0
BBX 26 36 1 0
BITMAP
001E0000
003F0000
00638000
00618000
00618000
00638000
003F0000
001E0000
00000000
007F0000
007F8000
007F8000
00FF8000
00FFC000
01FFC000
01FFC000
01F7E000
03F7E000
03F3E000
03E3F000
07E3F000
07E1F800
07C1F800
0FC1F800
0FC0FC00
0F80FC00
1FFFFC00
1FFFFE00
3FFFFE00
3FFFFE00
3FFFFF00
7E003F00
7E003F00
7E001F80
FC001F80
FC001FC0
ENDCHAR
STARTCHAR AE
ENCODING 198
SWIDTH 1000 0
DWIDTH 38 0
BBX 36 27 0 0
BITMAP
003FFFFFF0
003FFFFFF0
007FFFFFF0
007FFFFFF0
00FFFFFFF0
00FCFC0000
00F8FC0000
01F8FC0000
01F8FC0000
01F0FC0000
03F0FFFFE0
03E0FFFFE0
03E0FFFFE0
07E0FFFFE0
07C0FFFFE0
0FC0FC0000
0FC0FC0000
0FFFFC0000
1FFFFC0000
1FFFFC0000
1FFFFC0000
3F00FC0000
3F00FFFFF0
7E00FFFFF0
7E00FFFFF0
7E00FFFFF0
FC00FFFFF0
ENDCHAR
STARTCHAR Ccedilla
ENCODING 199
SWIDTH 722 0
DWIDTH 27 0
BBX 24 35 2 -8
BITMAP
007F00
03FFE0
07FFF0
1FFFF8
3FFFFC
3FC1FE
7F007E
7E003F
FE003F
FC0000
FC0000
FC0000
FC0000
F80000
FC0000
FC0000
FC0000
FC003F
FE003F
7E007E
7F007E
3FC1FC
3FFFFC
1FFFF8
0FFFF0
03FFC0
00FF00
007000
007800
00FE00
000E00
000E00
011E00
01FE00
00F800
ENDCHAR
STARTCHAR Egrave
ENCODING 200
SWIDTH 667 0
DWIDTH 25 0
BBX 21 36 3 0
BITMAP
1F0000
0F8000
07C000
03C000
01E000
00F000
000000
000000
000000
FFFFF0
FFFFF0
FFFFF0
FFFFF0
FFFFF0
F80000
F80000
F80000
F80000
F80000
FFFFE0
FFFFE0
FFFFE0
FFFFE0
FFFFE0
F80000
F80000
F80000
F80000
F80000
F80000
F80000
FFFFF8
FFFFF8
FFFFF8
FFFFF8
FFFFF8
ENDCHAR
STARTCHAR Eacute
ENCODING 201
SWIDTH 667 0
DWIDTH 25 0
BBX 21 36 3 0
BITMAP
001F80
003F00
003E00
007C00
00F800
00F000
000000
000000
000000
FFFFF0
FFFFF0
FFFFF0
FFFFF0
FFFFF0
F80000
F80000
F80000
F80000
F80000
FFFFE0
FFFFE0
FFFFE0
FFFFE0
FFFFE0
F80000
F80000
F80000
F80000
F80000
F80000
F80000
FFFFF8
FFFFF8
FFFFF8
FFFFF8
FFFFF8
ENDCHAR
STARTCHAR Ecircumflex
ENCODING 202
SWIDTH 667 0
DWIDTH 25 0
BBX 21 36 3 0
BITMAP
01F000
03F800
03FC00
07BC00
0F1E00
1F0F00
000000
000000
000000
FFFFF0
FFFFF0
FFFFF0
FFFFF0
FFFFF0
F80000
F80000
F80000
F80000
F80000
FFFFE0
FFFFE0
FFFFE0
FFFFE0
FFFFE0
F80000
F80000
F80000
F80000
F80000
F80000
F80000
FFFFF8
FFFFF8
FFFFF8
FFFFF8
FFFFF8
ENDCHAR
STARTCHAR Edieresis
ENCODING 203
SWIDTH 667 0
DWIDTH 25 0
BBX 21 34 3 0
BITMAP
0F1F00
0F1F00
0F1F00
0F1F00
000000
000000
000000
FFFFF0
FFFFF0
FFFFF0
FFFFF0
FFFFF0
F80000
F80000
F80000
F80000
F80000
FFFFE0
FFFFE0
FFFFE0
FFFFE0
FFFFE0
F80000
F80000
F80000
F80000
F80000
F80000
F80000
FFFFF8
FFFFF8
FFFFF8
FFFFF8
FFFFF8
ENDCHAR
STARTCHAR Igrave
ENCODING 204
SWIDTH 278 0
DWIDTH 11 0
BBX 10 36 -2 0
BITMAP
FC00
7E00
3E00
1F00
0F80
0780
0000
0000
0000
0FC0
0FC0
0FC0
0FC0
0FC0
0FC0
0FC0
0FC0
0FC0
0FC0
0FC0
0FC0
0FC0
0FC0
0FC0
0FC0
0FC0
0FC0
0FC0
0FC0
0FC0
0FC0
0FC0
0FC0
0FC0
0FC0
0FC0
ENDCHAR
STARTCHAR Iacute
ENCODING 205
SWIDTH 278 0
DWIDTH 11 0
BBX 10 36 2 0
BITMAP
07C0
0F80
1F00
1E00
3C00
7800
0000
0000
0000
FC00
FC00
FC00
FC00
FC00
FC00
FC00
FC00
FC00
FC00
FC00
FC00
FC00
FC00
FC00
FC00
FC00
FC00
FC00
FC00
FC00
FC00
FC00
FC00
FC00
FC00
FC00
ENDCHAR
STARTCHAR Icircumflex
ENCODING 206
SWIDTH 278 0
DWIDTH 11 0
BBX 13 36 -1 0
BITMAP
0F80
1FC0
3FC0
3DE0
78F0
F0F8
0000
0000
0000
1F80
1F80
1F80
1F80
1F80
1F80
1F80
1F80
1F80
1F80
1F80
1F80
1F80
1F80
1F80
1F80
1F80
1F80
1F80
1F80
1F80
1F80
1F80
1F80
1F80
1F80
1F80
ENDCHAR
STARTCHAR Idieresis
ENCODING 207
SWIDTH 278 0
DWIDTH 11 0
BBX 12 34 -1 0
BITMAP
F8F0
F8F0
F8F0
F8F0
0000
0000
0000
1F80
1F80
1F80
1F80
1F80
1F80
1F80
1F80
1F80
1F80
1F80
1F80
1F80
1F80
1F80
1F80
1F80
1F80
1F80
1F80
1F80
1F80
1F80
1F80
1F80
1F80
1F80
ENDCHAR
STARTCHAR Eth
ENCODING 208
SWIDTH 722 0
DWIDTH 27 0
BBX 26 27 0 0
BITMAP
1FFFE000
1FFFF800
1FFFFC00
1FFFFE00
1FFFFF00
1F007F80
1F003F80
1F001F80
1F000FC0
1F000FC0
FFFE0FC0
FFFE0FC0
FFFE0FC0
FFFE0FC0
FFFE0FC0
1F000FC0
1F000FC0
1F000FC0
1F001F80
1F001F80
1F003F80
1F007F00
1FFFFE00
1FFFFE00
1FFFFC00
1FFFF000
1FFFC000
ENDCHAR
STARTCHAR Ntilde
ENCODING 209
SWIDTH 722 0
DWIDTH 27 0
BBX 22 35 3 0
BITMAP
01C1C0
07F380
07FF80
0E7F00
0C0E00
000000
000000
000000
FC007C
FC007C
FE007C
FF007C
FF007C
FF807C
FF807C
FFC07C
FFE07C
FBE07C
F9F07C
F9F07C
F8F87C
F8F87C
F87C7C
F87E7C
F83E7C
F81F7C
F81F7C
F80FFC
F80FFC
F807FC
F803FC
F803FC
F801FC
F801FC
F800FC
ENDCHAR
STARTCHAR Ograve
ENCODING 210
SWIDTH 778 0
DWIDTH 30 0
BBX 26 35 2 0
BITMAP
03E00000
01F00000
00F80000
00780000
003C0000
001E0000
00000000
00000000
007F8000
03FFE000
07FFF800
1FFFFC00
3FFFFE00
3FC0FF00
7F003F00
7E003F80
FC001F80
FC000F80
FC000FC0
FC000FC0
F8000FC0
F8000FC0
F8000FC0
FC000FC0
FC000FC0
FC000F80
FC001F80
7E001F80
7F003F00
3FC0FF00
3FFFFE00
1FFFFC00
0FFFF800
03FFE000
007F8000
ENDCHAR
STARTCHAR Oacute
ENCODING 211
SWIDTH 778 0
DWIDTH 30 0
BBX 26 35 2 0
BITMAP
0003F000
0007E000
0007C000
000F8000
000F0000
001E0000
00000000
00000000
007F8000
03FFE000
07FFF800
1FFFFC00
3FFFFE00
3FC0FF00
7F003F00
7E003F80
FC001F80
FC000F80
FC000FC0
FC000FC0
F8000FC0
F8000FC0
F8000FC0
FC000FC0
FC000FC0
FC000F80
FC001F80
7E001F80
7F003F00
3FC0FF00
3FFFFE00
1FFFFC00
0FFFF800
03FFE000
007F8000
ENDCHAR
STARTCHAR Ocircumflex
ENCODING 212
SWIDTH 778 0
DWIDTH 30 0
BBX 26 35 2 0
BITMAP
003E0000
003F0000
007F8000
00F7C000
01F3C000
03E1E000
00000000
00000000
007F8000
03FFE000
07FFF800
1FFFFC00
3FFFFE00
3FC0FF00
7F003F00
7E003F80
FC001F80
FC000F80
FC000FC0
FC000FC0
F8000FC0
F8000FC0
F8000FC0
FC000FC0
FC000FC0
FC000F80
FC001F80
7E001F80
7F003F00
3FC0FF00
3FFFFE00
1FFFFC00
0FFFF800
03FFE000
007F8000
ENDCHAR
STARTCHAR Otilde
ENCODING 213
SWIDTH 778 0
DWIDTH 30 0
BBX 26 34 2 0
BITMAP
00707000
01FEE000
01FFE000
039FC000
03010000
00000000
00000000
007F8000
03FFE000
07FFF800
1FFFFC00
3FFFFE00
3FC0FF00
7F003F00
7E003F80
FC001F80
FC000F80
FC000FC0
FC000FC0
F8000FC0
F8000FC0
F8000FC0
FC000FC0
FC000FC0
FC000F80
FC001F80
7E001F80
7F003F00
3FC0FF00
3FFFFE00
1FFFFC00
0FFFF800
03FFE000
007F8000
ENDCHAR
STARTCHAR Odieresis
ENCODING 214
SWIDTH 778 0
DWIDTH 30 0
BBX 26 34 2 0
BITMAP
01E3E000
01E3E000
01E3E000
01E3E000
00000000
00000000
00000000
007F8000
03FFE000
07FFF800
1FFFFC00
3FFFFE00
3FC0FF00
7F003F00
7E003F80
FC001F80
FC000F80
FC000FC0
FC000FC0
F8000FC0
F8000FC0
F8000FC0
FC000FC0
FC000FC0
FC000F80
FC001F80
7E001F80
7F003F00
3FC0FF00
3FFFFE00
1FFFFC00
0FFFF800
03FFE000
007F8000
ENDCHAR
STARTCHAR multiply
ENCODING 215
SWIDTH 584 0
DWIDTH 22 0
BBX 18 19 2 0
BITMAP
200100
700380
F807C0
FC0FC0
7E1F80
3F3F00
1FFE00
0FFC00
07F800
03F000
07F800
0FFC00
1FFE00
3F3F00
7E1F80
FC0FC0
F807C0
700380
200100
ENDCHAR
STARTCHAR Oslash
ENCODING 216
SWIDTH 778 0
DWIDTH 30 0
BBX 26 27 2 0
BITMAP
007F80C0
03FFE1C0
07FFFB00
1FFFFE00
3FFFFF00
3F80FF00
7F007F80
7E007F80
FC00FF80
FC01CFC0
FC038FC0
F8070FC0
F80E0FC0
F81C0FC0
F8380FC0
FC700FC0
FCE00FC0
FDC00F80
FF801F80
7F001F80
7F003F00
3FC0FF00
3FFFFE00
7FFFFC00
E7FFF800
C3FFE000
C07F8000
ENDCHAR
STARTCHAR Ugrave
ENCODING 217
SWIDTH 722 0
DWIDTH 27 0
BBX 22 36 3 0
BITMAP
0F8000
07C000
03E000
01E000
00F000
007800
000000
000000
000000
FC00FC
FC00FC
FC00FC
FC00FC
FC00FC
FC00FC
FC00FC
FC00FC
FC00FC
FC00FC
FC00FC
FC00FC
FC00FC
FC00FC
FC00FC
FC00FC
FC00FC
FC00FC
FC00FC
FC00FC
FE01F8
7F03F8
7FFFF0
3FFFF0
1FFFE0
0FFF80
01FE00
ENDCHAR
STARTCHAR Uacute
ENCODING 218
SWIDTH 722 0
DWIDTH 27 0
BBX 22 36 3 0
BITMAP
000FC0
001F80
001F00
003E00
007C00
007800
000000
000000
000000
FC00FC
FC00FC
FC00FC
FC00FC
FC00FC
FC00FC
FC00FC
FC00FC
FC00FC
FC00FC
FC00FC
FC00FC
FC00FC
FC00FC
FC00FC
FC00FC
FC00FC
FC00FC
FC00FC
FC00FC
FE01F8
7F03F8
7FFFF0
3FFFF0
1FFFE0
0FFF80
01FE00
ENDCHAR
STARTCHAR Ucircumflex
ENCODING 219
SWIDTH 722 0
DWIDTH 27 0
BBX 22 36 3 0
BITMAP
00F800
00FC00
01FE00
03DF00
078F00
0F8780
000000
000000
000000
FC00FC
FC00FC
FC00FC
FC00FC
FC00FC
FC00FC
FC00FC
FC00FC
FC00FC
FC00FC
FC00FC
FC00FC
FC00FC
FC00FC
FC00FC
FC00FC
FC00FC
FC00FC
FC00FC
FC00FC
FE01F8
7F03F8
7FFFF0
3FFFF0
1FFFE0
0FFF80
01FE00
ENDCHAR
STARTCHAR Udieresis
ENCODING 220
SWIDTH 722 0
DWIDTH 27 0
BBX 22 34 3 0
BITMAP
078F80
078F80
078F80
078F80
000000
000000
000000
FC00FC
FC00FC
FC00FC
FC00FC
FC00FC
FC00FC
FC00FC
FC00FC
FC00FC
FC00FC
FC00FC
FC00FC
FC00FC
FC00FC
FC00FC
FC00FC
FC00FC
FC00FC
FC00FC
FC00FC
FE01F8
7F03F8
7FFFF0
3FFFF0
1FFFE0
0FFF80
01FE00
ENDCHAR
STARTCHAR Yacute
ENCODING 221
SWIDTH 667 0
DWIDTH 25 0
BBX 24 36 1 0
BITMAP
0007E0
000FC0
000F80
001F00
003E00
003C00
000000
000000
000000
FE007F
FE007E
7F00FC
3F00FC
3F01F8
1F81F8
1F83F0
0FC3F0
0FC7E0
07E7E0
07E7C0
03FFC0
01FF80
01FF80
00FF00
00FE00
007E00
007E00
007E00
007E00
007E00
007E00
007E00
007E00
007E00
007E00
007E00
ENDCHAR
STARTCHAR Thorn
ENCODING 222
SWIDTH 667 0
DWIDTH 25 0
BBX 21 27 3 0
BITMAP
FC0000
FC0000
FC0000
FC0000
FFFF00
FFFFC0
FFFFE0
FFFFF0
FFFFF0
FC03F0
FC01F8
FC01F8
FC01F8
FC01F8
FC01F8
FC03F0
FFFFF0
FFFFE0
FFFFE0
FFFF80
FFFE00
FC0000
FC0000
FC0000
FC0000
FC0000
FC0000
ENDCHAR
STARTCHAR germandbls
ENCODING 223
SWIDTH 611 0
DWIDTH 23 0
BBX 19 27 3 0
BITMAP
07F000
1FFE00
7FFF00
7FFF80
FE3F80
F80F80
F80F80
F80F80
F80F80
F81F80
F8FF00
F8FE00
F8FF00
F8FFC0
F81FC0
F807E0
F807E0
F803E0
F803E0
F803E0
F807E0
F80FC0
F83FC0
F8FF80
F8FF80
F8FE00
F8F800
ENDCHAR
STARTCHAR agrave
ENCODING 224
SWIDTH 556 0
DWIDTH 21 0
BBX 19 28 1 0
BITMAP
3F0000
1F8000
0FC000
07C000
03E000
01E000
000000
000000
03FC00
0FFF00
3FFF80
3FFF80
7F1FC0
7C0FC0
7C07C0
000FC0
01FFC0
1FFFC0
3FF7C0
7F07C0
7C07C0
F807C0
F80FC0
FC1FC0
FFFFC0
7FF7C0
3FE7C0
1F87E0
ENDCHAR
STARTCHAR aacute
ENCODING 225
SWIDTH 556 0
DWIDTH 21 0
BBX 19 28 1 0
BITMAP
001F80
003F00
003E00
007C00
00F800
00F000
000000
000000
03FC00
0FFF00
3FFF80
3FFF80
7F1FC0
7C0FC0
7C07C0
000FC0
01FFC0
1FFFC0
3FF7C0
7F07C0
7C07C0
F807C0
F80FC0
FC1FC0
FFFFC0
7FF7C0
3FE7C0
1F87E0
ENDCHAR
STARTCHAR acircumflex
ENCODING 226
SWIDTH 556 0
DWIDTH 21 0
BBX 19 28 1 0
BITMAP
01F000
03F800
03FC00
07BC00
0F1E00
1F0F00
000000
000000
03FC00
0FFF00
3FFF80
3FFF80
7F1FC0
7C0FC0
7C07C0
000FC0
01FFC0
1FFFC0
3FF7C0
7F07C0
7C07C0
F807C0
F80FC0
FC1FC0
FFFFC0
7FF7C0
3FE7C0
1F87E0
ENDCHAR
STARTCHAR atilde
ENCODING 227
SWIDTH 556 0
DWIDTH 21 0
BBX 19 27 1 0
BITMAP
038300
0FFF00
1FFF00
1CFE00
180800
000000
000000
03FC00
0FFF00
3FFF80
3FFF80
7F1FC0
7C0FC0
7C07C0
000FC0
01FFC0
1FFFC0
3FF7C0
7F07C0
7C07C0
F807C0
F80FC0
FC1FC0
FFFFC0
7FF7C0
3FE7C0
1F87E0
ENDCHAR
STARTCHAR adieresis
ENCODING 228
SWIDTH 556 0
DWIDTH 21 0
BBX 19 27 1 0
BITMAP
1F1F00
1F1F00
1F1F00
1F1F00
000000
000000
000000
03FC00
0FFF00
3FFF80
3FFF80
7F1FC0
7C0FC0
7C07C0
000FC0
01FFC0
1FFFC0
3FF7C0
7F07C0
7C07C0
F807C0
F80FC0
FC1FC0
FFFFC0
7FF7C0
3FE7C0
1F87E0
ENDCHAR
STARTCHAR aring
ENCODING 229
SWIDTH 556 0
DWIDTH 21 0
BBX 19 29 1 0
BITMAP
00E000
01F800
031800
031C00
030C00
031800
03F800
00E000
000000
03FC00
0FFF00
3FFF80
3FFF80
7F1FC0
7C0FC0
7C07C0
000FC0
01FFC0
1FFFC0
3FF7C0
7F07C0
7C07C0
F807C0
F80FC0
FC1FC0
FFFFC0
7FF7C0
3FE7C0
1F87E0
ENDCHAR
STARTCHAR ae
ENCODING 230
SWIDTH 889 0
DWIDTH 34 0
BBX 32 20 1 0
BITMAP
03F81FC0
0FFE7FF0
1FFFFFF8
3FFFFFFC
7F1FF9FC
7C07E07E
7C07C03E
000FC03E
03FFFFFF
1FFFFFFF
3FFFFFFF
7F87C000
FC07C000
F807C000
F80FE03E
FC1FF8FE
7FFFFFFC
7FFCFFF8
3FF87FF0
0FE01FC0
ENDCHAR
STARTCHAR ccedilla
ENCODING 231
SWIDTH 556 0
DWIDTH 21 0
BBX 19 28 1 -8
BITMAP
01F800
0FFF00
1FFF80
3FFFC0
3FDFC0
7E07E0
7C07E0
7C0000
FC0000
FC0000
FC0000
FC0000
FC07E0
7C07E0
7E07C0
7F9FC0
3FFF80
1FFF00
0FFE00
03F800
01C000
01E000
03F800
007800
003800
047800
07F800
07E000
ENDCHAR
STARTCHAR egrave
ENCODING 232
SWIDTH 556 0
DWIDTH 21 0
BBX 19 28 1 0
BITMAP
3F0000
1F8000
0FC000
07C000
03E000
01E000
000000
000000
03F800
0FFE00
1FFF00
3FFF80
7FBFC0
7C0FC0
FC07E0
F807E0
FFFFE0
FFFFE0
FFFFE0
F80000
F80000
FC0000
7C07E0
7F1FC0
3FFFC0
1FFF80
0FFE00
03F800
ENDCHAR
STARTCHAR eacute
ENCODING 233
SWIDTH 556 0
DWIDTH 21 0
BBX 19 28 1 0
BITMAP
001F80
003F00
003E00
007C00
00F800
00F000
000000
000000
03F800
0FFE00
1FFF00
3FFF80
7FBFC0
7C0FC0
FC07E0
F807E0
FFFFE0
FFFFE0
FFFFE0
F80000
F80000
FC0000
7C07E0
7F1FC0
3FFFC0
1FFF80
0FFE00
03F800
ENDCHAR
STARTCHAR ecircumflex
ENCODING 234
SWIDTH 556 0
DWIDTH 21 0
BBX 19 28 1 0
BITMAP
01F000
03F800
03FC00
07BC00
0F1E00
1F0F00
000000
000000
03F800
0FFE00
1FFF00
3FFF80
7FBFC0
7C0FC0
FC07E0
F807E0
FFFFE0
FFFFE0
FFFFE0
F80000
F80000
FC0000
7C07E0
7F1FC0
3FFFC0
1FFF80
0FFE00
03F800
ENDCHAR
STARTCHAR edieresis
ENCODING 235
SWIDTH 556 0
DWIDTH 21 0
BBX 19 27 1 0
BITMAP
1F1F00
1F1F00
1F1F00
1F1F00
000000
000000
000000
03F800
0FFE00
1FFF00
3FFF80
7FBFC0
7C0FC0
FC07E0
F807E0
FFFFE0
FFFFE0
FFFFE0
F80000
F80000
FC0000
7C07E0
7F1FC0
3FFFC0
1FFF80
0FFE00
03F800
ENDCHAR
STARTCHAR igrave
ENCODING 236
SWIDTH 278 0
DWIDTH 11 0
BBX 10 29 -2 0
BITMAP
FC00
7E00
3E00
1F00
0F80
0780
0000
0000
0000
07C0
07C0
07C0
07C0
07C0
07C0
07C0
07C0
07C0
07C0
07C0
07C0
07C0
07C0
07C0
07C0
07C0
07C0
07C0
07C0
ENDCHAR
STARTCHAR iacute
ENCODING 237
SWIDTH 278 0
DWIDTH 11 0
BBX 9 29 3 0
BITMAP
0F80
1F00
3E00
3C00
7800
F000
0000
0000
0000
F800
F800
F800
F800
F800
F800
F800
F800
F800
F800
F800
F800
F800
F800
F800
F800
F800
F800
F800
F800
ENDCHAR
STARTCHAR icircumflex
ENCODING 238
SWIDTH 278 0
DWIDTH 11 0
BBX 13 29 -1 0
BITMAP
0F80
1FC0
3FC0
3DE0
78F0
F0F8
0000
0000
0000
0F80
0F80
0F80
0F80
0F80
0F80
0F80
0F80
0F80
0F80
0F80
0F80
0F80
0F80
0F80
0F80
0F80
0F80
0F80
0F80
ENDCHAR
STARTCHAR idieresis
ENCODING 239
SWIDTH 278 0
DWIDTH 11 0
BBX 12 27 -1 0
BITMAP
F8F0
F8F0
F8F0
F8F0
0000
0000
0000
0F80
0F80
0F80
0F80
0F80
0F80
0F80
0F80
0F80
0F80
0F80
0F80
0F80
0F80
0F80
0F80
0F80
0F80
0F80
0F80
ENDCHAR
STARTCHAR eth
ENCODING 240
SWIDTH 611 0
DWIDTH 23 0
BBX 21 27 1 0
BITMAP
006180
03FFC0
01FF80
00FE00
07FF00
07DF80
020FC0
0007E0
07FBE0
0FFFF0
1FFFF0
3FFFF0
7F07F8
7E03F8
7C01F8
FC01F8
FC01F8
FC01F8
FC01F8
7C01F8
7E01F0
7F03F0
3FDFE0
3FFFE0
1FFFC0
07FF00
01FC00
ENDCHAR
STARTCHAR ntilde
ENCODING 241
SWIDTH 611 0
DWIDTH 23 0
BBX 19 27 2 0
BITMAP
038380
0FFF00
1FFF00
1CFE00
180800
000000
000000
FC7E00
FDFF80
FFFFC0
FFFFC0
FFFFC0
FE07E0
FC07E0
FC07E0
FC07E0
FC07E0
FC07E0
FC07E0
FC07E0
FC07E0
FC07E0
FC07E0
FC07E0
FC07E0
FC07E0
FC07E0
ENDCHAR
STARTCHAR ograve
ENCODING 242
SWIDTH 611 0
DWIDTH 23 0
BBX 21 28 1 0
BITMAP
1F8000
0FC000
07E000
03E000
01F000
00F800
000000
000000
01FC00
07FF80
1FFFC0
1FFFE0
3FDFF0
7E03F0
7E01F0
7C01F8
FC01F8
FC01F8
FC01F8
FC01F8
7C01F8
7E01F0
7E03F0
3FDFF0
3FFFE0
1FFFC0
07FF00
01FC00
ENDCHAR
STARTCHAR oacute
ENCODING 243
SWIDTH 611 0
DWIDTH 23 0
BBX 21 28 1 0
BITMAP
000FC0
001F80
001F00
003E00
007C00
007800
000000
000000
01FC00
07FF80
1FFFC0
1FFFE0
3FDFF0
7E03F0
7E01F0
7C01F8
FC01F8
FC01F8
FC01F8
FC01F8
7C01F8
7E01F0
7E03F0
3FDFF0
3FFFE0
1FFFC0
07FF00
01FC00
ENDCHAR
STARTCHAR ocircumflex
ENCODING 244
SWIDTH 611 0
DWIDTH 23 0
BBX 21 28 1 0
BITMAP
00F800
01FC00
01FE00
03DE00
078F00
0F8780
000000
000000
01FC00
07FF80
1FFFC0
1FFFE0
3FDFF0
7E03F0
7E01F0
7C01F8
FC01F8
FC01F8
FC01F8
FC01F8
7C01F8
7E01F0
7E03F0
3FDFF0
3FFFE0
1FFFC0
07FF00
01FC00
ENDCHAR
STARTCHAR otilde
ENCODING 245
SWIDTH 611 0
DWIDTH 23 0
BBX 21 27 1 0
BITMAP
01C1C0
07FF80
0FFF80
0E7F00
0C0400
000000
000000
01FC00
07FF80
1FFFC0
1FFFE0
3FDFF0
7E03F0
7E01F0
7C01F8
FC01F8
FC01F8
FC01F8
FC01F8
7C01F8
7E01F0
7E03F0
3FDFF0
3FFFE0
1FFFC0
07FF00
01FC00
ENDCHAR
STARTCHAR odieresis
ENCODING 246
SWIDTH 611 0
DWIDTH 23 0
BBX 21 27 1 0
BITMAP
0F8F80
0F8F80
0F8F80
0F8F80
000000
000000
000000
01FC00
07FF80
1FFFC0
1FFFE0
3FDFF0
7E03F0
7E01F0
7C01F8
FC01F8
FC01F8
FC01F8
FC01F8
7C01F8
7E01F0
7E03F0
3FDFF0
3FFFE0
1FFFC0
07FF00
01FC00
ENDCHAR
STARTCHAR divide
ENCODING 247
SWIDTH 584 0
DWIDTH 22 0
BBX 19 23 2 -2
BITMAP
00C000
01F000
03F000
03F000
03F000
03F000
01E000
000000
000000
FFFFE0
FFFFE0
FFFFE0
FFFFE0
000000
000000
000000
01E000
03F000
03F000
03F000
03F000
01F000
00C000
ENDCHAR
STARTCHAR oslash
ENCODING 248
SWIDTH 611 0
DWIDTH 23 0
BBX 21 20 1 0
BITMAP
01FC18
07FF38
0FFFE0
1FFFE0
3FDFF0
7E03F0
7E07F8
7C0FF8
FC19F8
FC31F8
FC61F8
FCC1F8
FD81F8
7F01F0
7E03F0
7FDFE0
3FFFE0
3FFFC0
67FF00
C1FC00
ENDCHAR
STARTCHAR ugrave
ENCODING 249
SWIDTH 611 0
DWIDTH 23 0
BBX 18 29 3 0
BITMAP
7E0000
3F0000
1F8000
0F8000
07C000
03E000
000000
000000
000000
F80FC0
F80FC0
F80FC0
F80FC0
F80FC0
F80FC0
F80FC0
F80FC0
F80FC0
F80FC0
F80FC0
F80FC0
F80FC0
F80FC0
FC1FC0
FF7FC0
FFFFC0
7FF7C0
3FE7C0
1F87C0
ENDCHAR
STARTCHAR uacute
ENCODING 250
SWIDTH 611 0
DWIDTH 23 0
BBX 18 29 3 0
BITMAP
003F00
007E00
007C00
00F800
01F000
01E000
000000
000000
000000
F80FC0
F80FC0
F80FC0
F80FC0
F80FC0
F80FC0
F80FC0
F80FC0
F80FC0
F80FC0
F80FC0
F80FC0
F80FC0
F80FC0
FC1FC0
FF7FC0
FFFFC0
7FF7C0
3FE7C0
1F87C0
ENDCHAR
STARTCHAR ucircumflex
ENCODING 251
SWIDTH 611 0
DWIDTH 23 0
BBX 18 29 3 0
BITMAP
03E000
07F000
07F800
0F7800
1E3C00
3E1E00
000000
000000
000000
F80FC0
F80FC0
F80FC0
F80FC0
F80FC0
F80FC0
F80FC0
F80FC0
F80FC0
F80FC0
F80FC0
F80FC0
F80FC0
F80FC0
FC1FC0
FF7FC0
FFFFC0
7FF7C0
3FE7C0
1F87C0
ENDCHAR
STARTCHAR udieresis
ENCODING 252
SWIDTH 611 0
DWIDTH 23 0
BBX 18 27 3 0
BITMAP
3E3E00
3E3E00
3E3E00
3E3E00
000000
000000
000000
F80FC0
F80FC0
F80FC0
F80FC0
F80FC0
F80FC0
F80FC0
F80FC0
F80FC0
F80FC0
F80FC0
F80FC0
F80FC0
F80FC0
FC1FC0
FF7FC0
FFFFC0
7FF7C0
3FE7C0
1F87C0
ENDCHAR
STARTCHAR yacute
ENCODING 253
SWIDTH 556 0
DWIDTH 21 0
BBX 19 37 1 -8
BITMAP
001F80
003F00
003E00
007C00
00F800
00F000
000000
000000
000000
F803E0
FC07E0
FC07E0
7C07C0
7E07C0
7E0FC0
3E0F80
3F0F80
3F1F00
1F1F00
1F1F00
1F9E00
0FBE00
0FBE00
07FC00
07FC00
07FC00
03F800
03F800
03F800
01F000
01F000
03F000
07E000
3FE000
3FC000
3F8000
3F0000
ENDCHAR
STARTCHAR thorn
ENCODING 254
SWIDTH 611 0
DWIDTH 23 0
BBX 20 35 2 -8
BITMAP
FC0000
FC0000
FC0000
FC0000
FC0000
FC0000
FC0000
FC7C00
FDFF00
FFFF80
FFFFC0
FFFFE0
FE07E0
FC03F0
FC03F0
FC03F0
FC03F0
F803F0
FC03F0
FC03F0
FC03E0
FE07E0
FF9FE0
FFFFC0
FFFF80
FDFF00
FC7C00
FC0000
FC0000
FC0000
FC0000
FC0000
FC0000
FC0000
FC0000
ENDCHAR
STARTCHAR ydieresis
ENCODING 255
SWIDTH 556 0
DWIDTH 21 0
BBX 19 35 1 -8
BITMAP
1F1F00
1F1F00
1F1F00
1F1F00
000000
000000
000000
F803E0
FC07E0
FC07E0
7C07C0
7E07C0
7E0FC0
3E0F80
3F0F80
3F1F00
1F1F00
1F1F00
1F9E00
0FBE00
0FBE00
07FC00
07FC00
07FC00
03F800
03F800
03F800
01F000
01F000
03F000
07E000
3FE000
3FC000
3F8000
3F0000
ENDCHAR
STARTCHAR dotlessi
ENCODING 305
SWIDTH 278 0
DWIDTH 11 0
BBX 5 20 3 0
BITMAP
F8
F8
F8
F8
F8
F8
F8
F8
F8
F8
F8
F8
F8
F8
F8
F8
F8
F8
F8
F8
ENDCHAR
STARTCHAR Lslash
ENCODING 321
SWIDTH 611 0
DWIDTH 23 0
BBX 23 27 -1 0
BITMAP
0FC000
0FC000
0FC000
0FC000
0FC000
0FC000
0FC000
0FC400
0FCC00
0FFC00
0FF800
0FF000
0FC000
3FC000
FFC000
FFC000
CFC000
0FC000
0FC000
0FC000
0FC000
0FC000
0FFFFE
0FFFFE
0FFFFE
0FFFFE
0FFFFE
ENDCHAR
STARTCHAR lslash
ENCODING 322
SWIDTH 278 0
DWIDTH 11 0
BBX 12 27 -1 0
BITMAP
0F80
0F80
0F80
0F80
0F80
0F80
0F80
0F90
0FB0
0FF0
0FE0
1F80
3F80
FF80
EF80
8F80
0F80
0F80
0F80
0F80
0F80
0F80
0F80
0F80
0F80
0F80
0F80
ENDCHAR
STARTCHAR OE
ENCODING 338
SWIDTH 1000 0
DWIDTH 38 0
BBX 36 27 1 0
BITMAP
00FE3FFFF0
03FFBFFFF0
07FFFFFFF0
0FFFFFFFF0
1FFFFFFFF0
3F80FE0000
3F007E0000
7E007E0000
7E007E0000
7E007E0000
7C007FFFE0
7C007FFFE0
FC007FFFE0
FC007FFFE0
FC007FFFE0
7C007E0000
7C007E0000
7E007E0000
7E007E0000
7F007E0000
3F007E0000
3F80FE0000
1FFFFFFFF0
0FFFFFFFF0
07FFFFFFF0
03FFBFFFF0
00FE3FFFF0
ENDCHAR
STARTCHAR oe
ENCODING 339
SWIDTH 944 0
DWIDTH 36 0
BBX 34 20 1 0
BITMAP
01FC07F000
07FF1FFC00
1FFFBFFE00
1FFFFFFF00
3FDFFE7F00
7E03F81F80
7E01F00F80
7C01F00F80
FC01FFFFC0
FC01FFFFC0
FC01FFFFC0
FC01F00000
7C01F00000
7E01F00000
7E03F80F80
3FDFFE3F80
3FFFFFFF00
1FFFBFFE00
07FF1FFC00
01FC07F000
ENDCHAR
STARTCHAR Scaron
ENCODING 352
SWIDTH 667 0
DWIDTH 25 0
BBX 23 35 1 0
BITMAP
0783C0
03C7C0
01EF80
01FF00
00FE00
007C00
000000
000000
01FE00
07FFC0
1FFFE0
3FFFF0
3FFFF8
7F01F8
7E00FC
7C00FC
7C0000
7E0000
7FC000
3FFE00
3FFFC0
0FFFF0
03FFFC
003FFC
0001FE
00007E
FC007E
7C007E
7E007E
7F00FC
3FFFFC
3FFFF8
1FFFF0
07FFE0
01FF00
ENDCHAR
STARTCHAR scaron
ENCODING 353
SWIDTH 556 0
DWIDTH 21 0
BBX 19 28 1 0
BITMAP
1E0F00
0F1E00
0FBE00
07BC00
03F800
01F000
000000
000000
03F800
1FFF00
3FFF80
3FFF80
7E0FC0
7C07C0
7E0000
7FE000
7FFE00
3FFF80
0FFFC0
01FFC0
001FE0
FC07E0
FC07E0
7E0FC0
7FFFC0
3FFF80
1FFF00
03F800
ENDCHAR
STARTCHAR Ydieresis
ENCODING 376
SWIDTH 667 0
DWIDTH 25 0
BBX 24 34 1 0
BITMAP
03C7C0
03C7C0
03C7C0
03C7C0
000000
000000
000000
FE007F
FE007E
7F00FC
3F00FC
3F01F8
1F81F8
1F83F0
0FC3F0
0FC7E0
07E7E0
07E7C0
03FFC0
01FF80
01FF80
00FF00
00FE00
007E00
007E00
007E00
007E00
007E00
007E00
007E00
007E00
007E00
007E00
007E00
ENDCHAR
STARTCHAR Zcaron
ENCODING 381
SWIDTH 611 0
DWIDTH 23 0
BBX 21 36 1 0
BITMAP
0F0780
078F00
07DF00
03FE00
01FC00
00F800
000000
000000
000000
FFFFF8
FFFFF8
FFFFF8
FFFFF8
FFFFF8
0007F0
0007F0
000FE0
001FC0
003F80
007F00
007F00
00FE00
01FC00
03F800
07F000
07E000
0FE000
1FC000
3F8000
7F0000
FE0000
FFFFF8
FFFFF8
FFFFF8
FFFFF8
FFFFF8
ENDCHAR
STARTCHAR zcaron
ENCODING 382
SWIDTH 500 0
DWIDTH 19 0
BBX 17 29 1 0
BITMAP
3C1E00
1E3C00
1F7C00
0F7800
07F000
03E000
000000
000000
000000
FFFF80
FFFF80
FFFF80
FFFF80
003F80
007F00
00FE00
01FC00
03F800
07F000
07E000
0FC000
1F8000
3F8000
7F0000
FE0000
FFFF80
FFFF80
FFFF80
FFFF80
ENDCHAR
STARTCHAR florin
ENCODING 402
SWIDTH 556 0
DWIDTH 21 0
BBX 19 35 0 -8
BITMAP
0007E0
001FE0
001FE0
003FE0
007E20
007C00
007C00
007C00
00FC00
1FFFC0
1FFFC0
1FFFC0
1FFFC0
00F800
01F800
01F800
01F000
01F000
01F000
03F000
03F000
03F000
03E000
03E000
03E000
07E000
07E000
07E000
07C000
0FC000
DFC000
FF8000
FF0000
FF0000
FC0000
ENDCHAR
STARTCHAR circumflex
ENCODING 710
SWIDTH 333 0
DWIDTH 13 0
BBX 13 6 0 23
BITMAP
0F80
1FC0
3FC0
3DE0
78F0
F0F8
ENDCHAR
STARTCHAR caron
ENCODING 711
SWIDTH 333 0
DWIDTH 13 0
BBX 13 6 0 23
BITMAP
F078
F8F0
79E0
3FE0
1FC0
0F80
ENDCHAR
STARTCHAR breve
ENCODING 728
SWIDTH 333 0
DWIDTH 13 0
BBX 13 6 0 23
BITMAP
C038
E038
F070
7FF0
3FE0
1F80
ENDCHAR
STARTCHAR dotaccent
ENCODING 729
SWIDTH 333 0
DWIDTH 13 0
BBX 5 4 4 23
BITMAP
F8
F8
F8
F8
ENDCHAR
STARTCHAR ring
ENCODING 730
SWIDTH 333 0
DWIDTH 13 0
BBX 8 7 2 22
BITMAP
3C
7F
E3
C3
E3
7F
3C
ENDCHAR
STARTCHAR ogonek
ENCODING 731
SWIDTH 333 0
DWIDTH 13 0
BBX 8 8 3 -8
BITMAP
3C
78
F0
E0
E0
F0
FF
3F
ENDCHAR
STARTCHAR tilde
ENCODING 732
SWIDTH 333 0
DWIDTH 13 0
BBX 14 5 -1 22
BITMAP
1E0C
3FFC
7FF8
73F8
E020
ENDCHAR
STARTCHAR hungarumlaut
ENCODING 733
SWIDTH 333 0
DWIDTH 13 0
BBX 17 6 1 23
BITMAP
1F8F80
3F1F00
3E3E00
7C3C00
F87800
F0F000
ENDCHAR
STARTCHAR endash
ENCODING 8211
SWIDTH 556 0
DWIDTH 21 0
BBX 21 4 0 9
BITMAP
FFFFF8
FFFFF8
FFFFF8
FFFFF8
ENDCHAR
STARTCHAR emdash
ENCODING 8212
SWIDTH 1000 0
DWIDTH 38 0
BBX 38 4 0 9
BITMAP
FFFFFFFFFC
FFFFFFFFFC
FFFFFFFFFC
FFFFFFFFFC
ENDCHAR
STARTCHAR quoteleft
ENCODING 8216
SWIDTH 278 0
DWIDTH 11 0
BBX 5 10 3 17
BITMAP
18
38
70
E0
C0
C0
F8
F8
F8
F8
ENDCHAR
STARTCHAR quoteright
ENCODING 8217
SWIDTH 278 0
DWIDTH 11 0
BBX 5 10 3 17
BITMAP
F8
F8
F8
F8
F8
18
38
30
E0
C0
ENDCHAR
STARTCHAR quotesinglbase
ENCODING 8218
SWIDTH 278 0
DWIDTH 11 0
BBX 5 10 3 -5
BITMAP
F8
F8
F8
F8
F8
18
38
30
F0
C0
ENDCHAR
STARTCHAR quotedblleft
ENCODING 8220
SWIDTH 500 0
DWIDTH 19 0
BBX 15 10 2 17
BITMAP
0C04
3C1C
3038
6030
6070
E070
FC7E
FC7E
FC7E
FC7E
ENDCHAR
STARTCHAR quotedblright
ENCODING 8221
SWIDTH 500 0
DWIDTH 19 0
BBX 15 10 2 17
BITMAP
FC7E
FC7E
FC7E
FC7E
FC7E
1C0C
180C
381C
7078
6070
ENDCHAR
STARTCHAR quotedblbase
ENCODING 8222
SWIDTH 500 0
DWIDTH 19 0
BBX 15 10 2 -5
BITMAP
FC7E
FC7E
FC7E
FC7E
FC7E
1C0C
180C
181C
7078
6070
ENDCHAR
STARTCHAR dagger
ENCODING 8224
SWIDTH 556 0
DWIDTH 21 0
BBX 19 33 1 -6
BITMAP
01F000
01F000
01F000
01F000
01F000
01F000
01F000
01F000
FFFFE0
FFFFE0
FFFFE0
FFFFE0
01F000
01F000
01F000
01F000
01F000
01F000
01F000
01F000
01F000
01F000
01F000
01F000
01F000
01F000
01F000
01F000
01F000
01F000
01F000
01F000
01F000
ENDCHAR
STARTCHAR daggerdbl
ENCODING 8225
SWIDTH 556 0
DWIDTH 21 0
BBX 19 34 1 -7
BITMAP
01F000
01F000
01F000
01F000
01F000
01F000
01F000
01F000
FFFFE0
FFFFE0
FFFFE0
FFFFE0
01F000
01F000
01F000
01F000
01F000
01F000
01F000
01F000
01F000
FFFFE0
FFFFE0
FFFFE0
FFFFE0
01F000
01F000
01F000
01F000
01F000
01F000
01F000
01F000
01F000
ENDCHAR
STARTCHAR bullet
ENCODING 8226
SWIDTH 350 0
DWIDTH 13 0
BBX 13 13 0 7
BITMAP
0F80
1FE0
3FF0
7FF0
7FF8
FFF8
FFF8
FFF8
7FF0
7FF0
3FE0
1FC0
0200
ENDCHAR
STARTCHAR ellipsis
ENCODING 8230
SWIDTH 1000 0
DWIDTH 38 0
BBX 31 6 3 0
BITMAP
FC07E03E
FC07E03E
FC07E03E
FC07E03E
FC07E03E
FC07E03E
ENDCHAR
STARTCHAR perthousand
ENCODING 8240
SWIDTH 1000 0
DWIDTH 38 0
BBX 38 27 0 0
BITMAP
0F00300000
3FC0700000
7FE0600000
FFF0E00000
F0F1C00000
F0F1C00000
F0F3800000
F0F3800000
FFF7000000
7FE7000000
3FCE000000
0F0C000000
001C000000
0018000000
0038000000
0070F803C0
0073FC0FF0
00E7FE1FF8
00E7FF3FFC
01CF0F3C3C
01CF0F3C3C
038F0F3C3C
030F0F3C3C
0707FF3FFC
0607FE1FF8
0E03FC0FF0
1C00F807C0
ENDCHAR
STARTCHAR guilsinglleft
ENCODING 8249
SWIDTH 333 0
DWIDTH 13 0
BBX 6 14 3 4
BITMAP
04
0C
1C
3C
FC
F0
E0
E0
F0
FC
3C
1C
0C
04
ENDCHAR
STARTCHAR guilsinglright
ENCODING 8250
SWIDTH 333 0
DWIDTH 13 0
BBX 6 14 3 4
BITMAP
C0
E0
F0
F8
7C
3C
1C
1C
3C
7C
F8
F0
E0
C0
ENDCHAR
STARTCHAR fraction
ENCODING 8260
SWIDTH 167 0
DWIDTH 6 0
BBX 18 27 -6 0
BITMAP
0001C0
0001C0
000380
000380
000700
000E00
000E00
001C00
001C00
003800
007000
007000
00E000
00E000
01C000
038000
038000
070000
070000
0E0000
1C0000
1C0000
380000
380000
700000
E00000
E00000
ENDCHAR
STARTCHAR trademark
ENCODING 8482
SWIDTH 1000 0
DWIDTH 38 0
BBX 34 16 2 11
BITMAP
FFF8FC0FC0
FFF8FC0FC0
FFF8FC0FC0
0F00FE1FC0
0F00FE1FC0
0F00FE3FC0
0F00FF3FC0
0F00F73BC0
0F00F7FBC0
0F00F7FBC0
0F00F3F3C0
0F00F3F3C0
0F00F3F3C0
0F00F1E3C0
0F00F1E3C0
0F00F1E3C0
ENDCHAR
STARTCHAR minus
ENCODING 8722
SWIDTH 584 0
DWIDTH 22 0
BBX 19 4 2 8
BITMAP
FFFFE0
FFFFE0
FFFFE0
FFFFE0
ENDCHAR
STARTCHAR fi
ENCODING 64257
SWIDTH 611 0
DWIDTH 23 0
BBX 21 27 0 0
BITMAP
03F1F8
07F1F8
0FF1F8
0FF1F8
1FC1F8
1F8000
1F8000
FFF1F8
FFF1F8
FFF1F8
FFF1F8
1F81F8
1F81F8
1F81F8
1F81F8
1F81F8
1F81F8
1F81F8
1F81F8
1F81F8
1F81F8
1F81F8
1F81F8
1F81F8
1F81F8
1F81F8
1F81F8
ENDCHAR
STARTCHAR fl
ENCODING 64258
SWIDTH 611 0
DWIDTH 23 0
BBX 21 27 0 0
BITMAP
03F1F8
07F1F8
0FF1F8
0FF1F8
1FC1F8
1F81F8
1F81F8
FFF1F8
FFF1F8
FFF1F8
FFF1F8
1F81F8
1F81F8
1F81F8
1F81F8
1F81F8
1F81F8
1F81F8
1F81F8
1F81F8
1F81F8
1F81F8
1F81F8
1F81F8
1F81F8
1F81F8
1F81F8
ENDCHAR
STARTCHAR .notdef
ENCODING -1
SWIDTH 278 0
DWIDTH 11 0
BBX 1 1 0 0
BITMAP
00
ENDCHAR
ENDFONT
